<svg width="121" height="24" viewBox="0 0 121 24" fill="none" xmlns="http://www.w3.org/2000/svg">
<g clip-path="url(#clip0_71_1873)">
<path d="M106.397 0.995607C106.293 0.995436 106.191 1.01565 106.095 1.0551C106 1.09455 105.913 1.15246 105.84 1.22551C105.766 1.29856 105.708 1.38532 105.669 1.48082C105.629 1.57633 105.609 1.67871 105.609 1.7821V7.30319H120.195L113.55 0.995607H106.397ZM120.725 8.97368C120.725 8.76681 120.643 8.56842 120.497 8.42214C120.35 8.27586 120.152 8.19368 119.945 8.19368H114.419V22.7692L120.723 16.1263V8.97628L120.725 8.97368ZM112.746 23.297C112.953 23.2953 113.152 23.2115 113.298 23.0639C113.444 22.9163 113.526 22.7169 113.526 22.5092V16.9856H98.9502L105.592 23.2905H112.742L112.746 23.297ZM98.4172 15.3203C98.417 15.4239 98.4373 15.5265 98.4767 15.6223C98.5162 15.7181 98.5742 15.8052 98.6474 15.8786C98.7205 15.952 98.8074 16.0103 98.9031 16.0501C98.9988 16.0899 99.1013 16.1105 99.205 16.1107H104.725V1.526L98.4198 8.16898V15.319" fill="#117ACA"/>
<path d="M31.5766 3.65795V10.3919H22.1945V3.65795H18.7768V20.6359H22.1945V13.3455H31.5766V20.6411H34.9995V3.65795H31.5766ZM77.0374 3.65795V20.6255H92.029L90.131 17.6355H80.4642V13.3455H89.8242V10.4621H80.4642V6.57644H90.1141L91.9744 3.65795H77.0374ZM6.07458 3.65795C2.52039 3.65405 0.725098 5.81465 0.725098 8.95934V15.2955C0.725098 18.9355 3.03909 20.6346 6.05508 20.6346H16.7761L14.791 17.5302H6.71938C5.00468 17.5302 4.25849 16.9101 4.25849 14.9913V9.24144C4.25849 7.38634 4.88638 6.66224 6.76488 6.66224H14.8756L16.7839 3.65405H6.07458V3.65795ZM62.042 3.65405C59.988 3.65405 57.882 4.88775 57.882 8.06104V8.87614C57.882 12.1859 59.9061 13.4482 61.9315 13.456H69.0412C69.7796 13.456 70.3802 13.586 70.3802 14.8275V16.2692C70.362 17.3898 69.803 17.6472 69.0178 17.6472H59.6578L57.7416 20.6372H69.2349C72.0065 20.6372 73.8876 19.2592 73.8876 16.0755V14.9055C73.8876 11.8271 72.1391 10.3724 69.4299 10.3724H62.6452C61.8925 10.3724 61.3673 10.167 61.3673 9.05164V7.88164C61.3673 6.93264 61.7274 6.58164 62.6036 6.58164H71.5125L73.3741 3.65405H62.042ZM44.9249 3.65795L36.8767 20.6346H40.6818L42.2496 17.1246H50.9985L52.5585 20.6346H56.3805L48.314 3.65795H44.9249ZM46.6149 7.18224L49.7089 14.2386H43.5418L46.6149 7.18224Z" fill="#211E1E"/>
</g>
<defs>
<clipPath id="clip0_71_1873">
<rect width="120" height="22.3014" fill="white" transform="translate(0.725098 0.995605)"/>
</clipPath>
</defs>
</svg>
