<svg width="140" height="18" viewBox="0 0 140 18" fill="none" xmlns="http://www.w3.org/2000/svg">
<path fill-rule="evenodd" clip-rule="evenodd" d="M140 0H138.83V13.7906H140V0ZM55.8056 0.197465C56.3165 0.301731 56.8047 0.496225 57.2474 0.771824L57.2534 0.759858C57.6974 1.04072 58.0661 1.42582 58.3274 1.88165C58.626 2.43131 58.7707 3.05144 58.7462 3.67652C58.76 4.23517 58.6432 4.78934 58.4051 5.2949C58.1893 5.73444 57.875 6.11831 57.4868 6.4167C57.09 6.71549 56.6404 6.93674 56.1615 7.06883C55.6517 7.21379 55.124 7.28629 54.594 7.28422H51.6026V13.7906H50.3162V0.0299437H54.2949C54.8029 0.0335345 55.3091 0.0896738 55.8056 0.197465ZM56.5385 5.57909C56.8183 5.3814 57.0469 5.11991 57.2056 4.81627L57.1936 4.82524C57.3722 4.46823 57.4595 4.07254 57.4479 3.67353C57.4588 3.28025 57.3681 2.89079 57.1846 2.54276C57.0156 2.24013 56.7829 1.97781 56.5026 1.77396C56.2119 1.56639 55.8838 1.41706 55.5363 1.33422C55.1793 1.24434 54.8126 1.19813 54.4444 1.19661H51.6026V6.11157H54.5282C54.8891 6.1125 55.2487 6.0693 55.5991 5.98294C55.9349 5.90865 56.2536 5.77163 56.5385 5.57909ZM62.4765 4.76239C62.98 4.41447 63.5819 4.23727 64.1936 4.25683V4.2688C64.3079 4.2681 64.4221 4.27811 64.5346 4.29871C64.6453 4.31666 64.759 4.34059 64.8756 4.36752L64.738 5.51623C64.5935 5.46675 64.4421 5.4405 64.2893 5.43846C63.8392 5.42712 63.3917 5.5107 62.9761 5.68376C62.6226 5.82962 62.3073 6.05479 62.0547 6.34188C61.8104 6.63745 61.6282 6.97933 61.5192 7.347C61.3993 7.74879 61.3399 8.16618 61.3427 8.58547V13.7846H60.1731V7.02393C60.1731 6.85341 60.1701 6.647 60.1551 6.40769C60.1402 6.16837 60.1312 5.92606 60.1252 5.67777C60.1192 5.42948 60.1132 5.19615 60.0953 4.98376C60.0774 4.77136 60.0774 4.39145 60.0774 4.27478H61.247C61.259 4.62179 61.2739 5.17222 61.2739 5.47136C61.2716 5.67196 61.2887 5.87232 61.3248 6.06965C61.6084 5.5549 62.0016 5.10865 62.4765 4.76239ZM73.3145 5.59403C72.8881 5.1669 72.3792 4.83103 71.8188 4.60685C71.2142 4.36853 70.5691 4.24967 69.9192 4.25685C69.2655 4.25022 68.6166 4.36904 68.0077 4.60685C67.4462 4.82882 66.9368 5.16498 66.512 5.59403C66.0918 6.02369 65.7604 6.53195 65.5368 7.08975C65.2987 7.72047 65.18 8.38998 65.1868 9.06411C65.1718 9.71436 65.2825 10.3614 65.5128 10.9697C65.7365 11.5275 66.0679 12.0357 66.488 12.4654C66.9129 12.8944 67.4222 13.2306 67.9838 13.4526C68.5927 13.6904 69.2416 13.8092 69.8953 13.8026C70.5506 13.8149 71.202 13.6991 71.8128 13.4615C72.375 13.2389 72.8856 12.9035 73.3131 12.4759C73.7406 12.0484 74.0761 11.5378 74.2987 10.9756C74.5378 10.3701 74.6576 9.72409 74.6517 9.07309C74.6575 8.39877 74.5378 7.72925 74.2987 7.09873C74.0752 6.53871 73.7404 6.02987 73.3145 5.603V5.59403ZM73.2368 10.509C73.081 10.9395 72.8387 11.3335 72.5248 11.6667C72.2057 12.0043 71.8209 12.2731 71.394 12.4564C70.4446 12.8478 69.3789 12.8478 68.4295 12.4564C68.0067 12.2705 67.6253 12.002 67.3077 11.6667C66.9933 11.3298 66.7519 10.9316 66.5987 10.497C66.4327 10.0377 66.3496 9.55251 66.3534 9.06411C66.3509 8.55532 66.4338 8.04973 66.5987 7.56839C66.7512 7.13169 66.9926 6.73138 67.3077 6.39274C67.6279 6.05642 68.0125 5.78786 68.4385 5.603C69.3879 5.21158 70.4536 5.21158 71.403 5.603C71.8299 5.78633 72.2147 6.0551 72.5338 6.39274C72.8491 6.72946 73.0915 7.12766 73.2457 7.5624C73.4082 8.04427 73.4901 8.54962 73.488 9.05813C73.4914 9.54624 73.4094 10.0312 73.2457 10.491L73.2368 10.509ZM79.7491 1.10087C78.6962 1.10087 78.1697 1.89859 78.1697 3.49403L78.1786 4.27779H80.2726V5.33079H78.1786V13.7876H77.009V5.33079H75.1363V4.27779H77.009V3.06925C76.992 2.57237 77.0817 2.07762 77.2722 1.61839C77.4221 1.26693 77.6443 0.950967 77.9244 0.691042C78.1729 0.46288 78.4693 0.293209 78.7919 0.194461C79.082 0.100961 79.3845 0.0515502 79.6893 0.0478794C80.1493 0.0322001 80.6076 0.111635 81.0355 0.281213L80.8021 1.29532C80.4703 1.1518 80.1103 1.08532 79.7491 1.10087ZM88.3256 5.57309C87.9549 5.16647 87.5036 4.84148 87.0004 4.61882C86.4257 4.36706 85.803 4.24354 85.1756 4.25685C84.5719 4.24756 83.9727 4.36313 83.4157 4.59633C82.8587 4.82952 82.3559 5.1753 81.9389 5.61198C81.5319 6.04393 81.2147 6.55232 81.0056 7.10771C80.7798 7.70388 80.6672 8.33692 80.6735 8.97438C80.6657 9.62844 80.7741 10.2787 80.9936 10.8949C81.1965 11.452 81.5122 11.9612 81.9209 12.3906C82.3277 12.8156 82.8189 13.1508 83.3628 13.3748C83.9574 13.6158 84.594 13.7358 85.2355 13.7278C85.9968 13.7364 86.7513 13.5835 87.4491 13.2791C88.144 12.9549 88.7293 12.4351 89.1333 11.7833L88.2778 11.0684C87.9719 11.5818 87.5256 11.997 86.9914 12.265C86.4548 12.5407 85.8597 12.6833 85.2564 12.6808C84.6699 12.705 84.0878 12.5696 83.5722 12.2889C83.163 12.0579 82.8064 11.7441 82.5252 11.3675C82.2774 11.0319 82.0957 10.6522 81.9897 10.2487C81.9027 9.94074 81.8535 9.62331 81.8432 9.30344H89.4085V8.46882C89.4072 7.94318 89.3141 7.42181 89.1333 6.92822C88.9562 6.42764 88.6817 5.96708 88.3256 5.57309ZM81.8432 8.23549C81.8661 8.01123 81.9184 7.79097 81.9987 7.58036C82.1215 7.22671 82.2992 6.89459 82.5252 6.59617C82.7977 6.23359 83.1393 5.92857 83.5303 5.69873C84.0134 5.42408 84.5635 5.28942 85.1188 5.30985C85.536 5.30769 85.9495 5.38695 86.3363 5.54318C86.7052 5.69027 87.0431 5.9054 87.3325 6.17737C87.6102 6.4413 87.8346 6.75612 87.9936 7.10472C88.1571 7.45916 88.2408 7.84516 88.2389 8.23549H81.8432ZM94.7393 8.39102C95.1828 8.46112 95.6152 8.58884 96.0256 8.77093C96.4047 8.94322 96.7371 9.20376 96.9949 9.53076C97.2863 9.94274 97.4277 10.4421 97.3957 10.9457C97.405 11.3666 97.3148 11.7838 97.1325 12.1632C96.9605 12.503 96.7141 12.7995 96.4115 13.0308C96.098 13.2676 95.7443 13.4459 95.3675 13.5573C94.9685 13.6757 94.5543 13.7351 94.138 13.7338C93.4018 13.7425 92.6726 13.5894 92.0021 13.285C91.3676 12.9961 90.8431 12.5105 90.5064 11.9L91.5385 11.197C91.7808 11.6711 92.1658 12.0572 92.6393 12.3008C93.1081 12.5501 93.631 12.6806 94.162 12.6808C94.4128 12.6801 94.662 12.6407 94.9009 12.5641C95.1387 12.4901 95.363 12.3779 95.565 12.232C95.7558 12.0913 95.9182 11.9157 96.0436 11.7145C96.1689 11.5061 96.2332 11.2667 96.2291 11.0235C96.2413 10.8468 96.2114 10.6697 96.1417 10.5069C96.072 10.3441 95.9645 10.2002 95.8282 10.0872C95.5336 9.86433 95.1998 9.69891 94.844 9.59956C94.4211 9.47599 93.9917 9.37612 93.5577 9.30042C93.1142 9.22406 92.6821 9.0924 92.2714 8.90854C91.8914 8.74285 91.5539 8.49331 91.2842 8.17862C90.9965 7.79909 90.8553 7.32862 90.8863 6.85341C90.8759 6.45242 90.9697 6.05559 91.1586 5.7017C91.3353 5.38457 91.5781 5.10913 91.8705 4.89401C92.1673 4.67685 92.5006 4.51473 92.8547 4.41538C93.2165 4.31161 93.5911 4.25925 93.9675 4.25982C94.631 4.24377 95.2889 4.38417 95.888 4.66965C96.4349 4.95132 96.8757 5.40264 97.1444 5.95598L96.0915 6.58119C95.9056 6.19995 95.6242 5.87327 95.2748 5.6329C94.9805 5.46888 94.6567 5.36463 94.322 5.32612C93.9873 5.28762 93.6482 5.31563 93.3244 5.40854C93.1074 5.46794 92.9007 5.55971 92.7111 5.68076C92.5291 5.79701 92.3733 5.94981 92.2534 6.12948C92.1285 6.31261 92.0637 6.53007 92.0679 6.7517C92.0551 6.9225 92.0847 7.09384 92.1541 7.25042C92.2235 7.40701 92.3306 7.54399 92.4658 7.64914C92.7651 7.85911 93.0994 8.0141 93.453 8.10683C93.8761 8.22571 94.3055 8.32059 94.7393 8.39102ZM103.974 8.77096C103.563 8.58925 103.131 8.46155 102.688 8.39105C102.257 8.31986 101.83 8.22499 101.41 8.10686C101.058 8.01356 100.725 7.8586 100.426 7.64917C100.291 7.54401 100.184 7.40704 100.114 7.25045C100.045 7.09386 100.015 6.92253 100.028 6.75173C100.024 6.5301 100.089 6.31264 100.214 6.12951C100.334 5.94984 100.489 5.79704 100.671 5.68079C100.861 5.55974 101.068 5.46797 101.285 5.40857C101.608 5.31566 101.947 5.28765 102.282 5.32615C102.617 5.36465 102.941 5.46891 103.235 5.63293C103.584 5.8733 103.866 6.19998 104.052 6.58122L105.105 5.956C104.836 5.40183 104.394 4.95029 103.845 4.66968C103.246 4.38355 102.588 4.24312 101.925 4.25985C101.549 4.25908 101.176 4.31145 100.815 4.4154C100.461 4.51476 100.128 4.67688 99.8308 4.89404C99.5383 5.10915 99.2955 5.3846 99.1188 5.70173C98.93 6.05562 98.8362 6.45245 98.8466 6.85344C98.8155 7.32865 98.9568 7.79912 99.2444 8.17865C99.5137 8.4926 99.85 8.74205 100.229 8.90857C100.641 9.092 101.074 9.22363 101.518 9.30045C101.952 9.37615 102.381 9.47602 102.804 9.59959C103.165 9.69719 103.504 9.86267 103.803 10.0872C103.939 10.2004 104.046 10.3444 104.116 10.5072C104.185 10.6701 104.214 10.8471 104.201 11.0235C104.206 11.2664 104.143 11.5059 104.019 11.7146C103.893 11.9158 103.731 12.0914 103.54 12.2321C103.334 12.3794 103.104 12.4916 102.861 12.5641C102.622 12.6407 102.373 12.6801 102.122 12.6808C101.591 12.6806 101.068 12.5502 100.6 12.3009C100.129 12.0566 99.7468 11.6704 99.5077 11.197L98.4756 11.9C98.8124 12.5105 99.3369 12.9962 99.9714 13.2851C100.642 13.59 101.371 13.7433 102.107 13.7338C102.523 13.735 102.938 13.6755 103.337 13.5573C103.713 13.4466 104.066 13.2682 104.378 13.0308C104.681 12.7996 104.929 12.5031 105.102 12.1633C105.283 11.7836 105.372 11.3664 105.362 10.9457C105.395 10.4425 105.254 9.94315 104.964 9.53079C104.702 9.20189 104.364 8.94121 103.98 8.77096H103.974ZM106.846 4.27779H108.015V13.7876H106.846V4.27779ZM107.429 0.0328885C107.311 0.0300416 107.193 0.0522908 107.083 0.0981755C106.974 0.14406 106.876 0.212543 106.795 0.299128C106.712 0.380114 106.646 0.477484 106.602 0.585093C106.558 0.692703 106.537 0.808215 106.541 0.924341C106.54 1.03797 106.562 1.15063 106.605 1.25552C106.649 1.36041 106.713 1.45534 106.795 1.5346C106.962 1.69635 107.186 1.78677 107.419 1.78677C107.651 1.78677 107.875 1.69635 108.042 1.5346C108.124 1.45338 108.189 1.35632 108.232 1.24935C108.275 1.14237 108.296 1.02772 108.294 0.912376C108.297 0.799377 108.277 0.686933 108.236 0.581631C108.195 0.476328 108.133 0.380285 108.054 0.299128C107.973 0.216135 107.876 0.150734 107.768 0.10699C107.661 0.0632468 107.545 0.0420965 107.429 0.0448543V0.0328885ZM116.104 4.60683C116.664 4.8324 117.173 5.1681 117.6 5.59401L117.594 5.60597C118.02 6.03285 118.355 6.54169 118.578 7.1017C118.816 7.73242 118.935 8.40193 118.928 9.07606C118.935 9.72687 118.816 10.3729 118.578 10.9786C118.355 11.5386 118.02 12.0475 117.594 12.4744C117.167 12.9003 116.658 13.236 116.098 13.4615C115.494 13.6948 114.85 13.8096 114.202 13.7996C113.548 13.8059 112.899 13.6871 112.29 13.4496C111.728 13.228 111.219 12.8918 110.794 12.4624C110.373 12.0335 110.042 11.525 109.819 10.9667C109.58 10.3611 109.46 9.71509 109.466 9.06409C109.46 8.38978 109.58 7.72026 109.819 7.08974C110.042 6.53135 110.373 6.02288 110.794 5.59401C111.219 5.16462 111.728 4.82842 112.29 4.60683C112.899 4.36931 113.548 4.2505 114.202 4.25683C114.853 4.24987 115.499 4.36871 116.104 4.60683ZM116.81 11.6667C117.121 11.3336 117.36 10.9407 117.513 10.512L117.516 10.491C117.682 10.0317 117.765 9.54651 117.762 9.05811C117.764 8.54932 117.681 8.04373 117.516 7.56239C117.363 7.12782 117.122 6.72961 116.807 6.39273C116.487 6.05641 116.103 5.78785 115.676 5.60298C114.727 5.21156 113.661 5.21156 112.712 5.60298C112.285 5.78632 111.9 6.05508 111.581 6.39273C111.265 6.7312 111.023 7.1315 110.869 7.56837C110.707 8.05023 110.625 8.55559 110.627 9.06409C110.624 9.5522 110.706 10.0371 110.869 10.497C111.023 10.9317 111.266 11.3299 111.581 11.6667C111.901 12.0046 112.287 12.2734 112.715 12.4564C113.664 12.8478 114.73 12.8478 115.679 12.4564C116.105 12.2715 116.49 12.003 116.81 11.6667ZM127.376 5.45643C127.107 5.08474 126.749 4.78647 126.335 4.5889C125.796 4.34765 125.208 4.23403 124.618 4.25685C123.943 4.24065 123.279 4.42492 122.709 4.78634C122.208 5.09539 121.802 5.53759 121.537 6.06369H121.48C121.444 5.86639 121.428 5.66594 121.432 5.4654C121.432 5.16625 121.414 4.61583 121.402 4.26882H120.232C120.232 4.38549 120.232 4.7654 120.25 4.97779C120.268 5.19019 120.274 5.42352 120.28 5.67181C120.286 5.9201 120.295 6.16241 120.31 6.40172C120.325 6.64104 120.328 6.84745 120.328 7.01796V13.7786H121.498V8.99232C121.486 8.43984 121.569 7.88943 121.743 7.36497C121.883 6.94013 122.108 6.54825 122.404 6.21326C122.679 5.91231 123.02 5.6789 123.4 5.53121C123.789 5.38076 124.202 5.30465 124.618 5.30685C125.013 5.29034 125.406 5.37367 125.761 5.54916C126.041 5.70437 126.276 5.93021 126.443 6.20429C126.609 6.4902 126.725 6.80302 126.784 7.12865C126.848 7.48004 126.88 7.83647 126.879 8.19361V13.7876H128.049V8.13677C128.051 7.65235 128.002 7.1691 127.903 6.69489C127.817 6.24945 127.637 5.82732 127.376 5.45643ZM136.961 10.9068C136.967 11.2568 136.976 11.5799 136.991 11.8791H136.985C136.997 12.1782 137.012 12.4594 137.032 12.7197C137.039 12.7964 137.045 12.8984 137.053 13.0107L137.053 13.0113C137.07 13.2796 137.092 13.6063 137.119 13.7876H136.027C135.947 13.2078 135.908 12.623 135.911 12.0376H135.872C135.58 12.574 135.145 13.0191 134.615 13.3239C134.025 13.6199 133.37 13.7629 132.71 13.7397C132.321 13.7391 131.934 13.6899 131.558 13.5932C131.194 13.5008 130.85 13.3416 130.544 13.1235C130.218 12.8918 129.955 12.5827 129.778 12.224C129.601 11.8652 129.515 11.4681 129.53 11.0684C129.5 10.468 129.695 9.87815 130.077 9.41411C130.431 9.0147 130.877 8.70681 131.376 8.51667C131.901 8.31229 132.451 8.18142 133.012 8.12778C133.521 8.07189 134.032 8.04194 134.544 8.03804H135.908V7.4936C135.908 6.71283 135.665 6.15342 135.187 5.81539C134.65 5.46175 134.016 5.28497 133.374 5.30983C132.364 5.29865 131.385 5.65964 130.625 6.32394L129.943 5.52522C130.396 5.09286 130.943 4.76958 131.54 4.57992C132.13 4.37274 132.749 4.2636 133.374 4.25684C134.465 4.25485 135.335 4.51112 135.985 5.02565C136.636 5.54018 136.961 6.36881 136.961 7.51154V9.71026C136.961 9.86583 136.96 10.0153 136.959 10.1587C136.958 10.4291 136.957 10.6782 136.961 10.9068ZM135.761 10.6945C135.853 10.3276 135.899 9.95082 135.899 9.57266L135.902 8.97436H134.615C134.138 8.97561 133.661 9.01059 133.188 9.07907C132.76 9.1354 132.341 9.24701 131.941 9.41112C131.597 9.544 131.289 9.75734 131.044 10.0333C130.818 10.307 130.699 10.6538 130.712 11.0086C130.707 11.264 130.771 11.5159 130.897 11.7385C131.015 11.9478 131.178 12.1278 131.376 12.265C131.575 12.4002 131.796 12.5023 132.028 12.5671C132.266 12.6386 132.512 12.6749 132.761 12.6748C133.287 12.6925 133.811 12.5987 134.298 12.3996C134.672 12.2419 135.003 11.9979 135.265 11.6876C135.504 11.3989 135.674 11.0591 135.761 10.6945ZM23.7821 0.0269494H25.8671V13.7936H23.7821V0.0269494ZM17.6675 4.25983C16.7243 4.25983 15.8023 4.53956 15.018 5.06365C14.2338 5.58774 13.6227 6.33263 13.2618 7.20412C12.901 8.0756 12.8068 9.03451 12.991 9.95957C13.1752 10.8846 13.6297 11.7343 14.2968 12.401C14.964 13.0678 15.8139 13.5217 16.7391 13.7053C17.6643 13.889 18.6231 13.7941 19.4944 13.4327C20.3656 13.0714 21.1101 12.4597 21.6337 11.6752C22.1573 10.8906 22.4365 9.96843 22.4359 9.02521C22.4343 7.76132 21.9313 6.54969 21.0373 5.65627C20.1434 4.76284 18.9314 4.26062 17.6675 4.25983ZM17.6675 11.882C17.0987 11.8826 16.5425 11.7145 16.0693 11.3988C15.596 11.0831 15.2271 10.6342 15.0091 10.1088C14.7912 9.58336 14.734 9.00509 14.8448 8.44715C14.9557 7.88922 15.2295 7.37671 15.6318 6.97448C16.034 6.57226 16.5465 6.2984 17.1044 6.18757C17.6624 6.07674 18.2406 6.13392 18.766 6.35188C19.2915 6.56984 19.7404 6.93877 20.0561 7.41198C20.3717 7.8852 20.5399 8.44142 20.5393 9.01025C20.5385 9.77166 20.2357 10.5016 19.6973 11.04C19.1589 11.5784 18.4289 11.8813 17.6675 11.882ZM29.7081 5.12139C30.5053 4.56133 31.4561 4.26145 32.4303 4.26285V4.25985C33.1785 4.25952 33.9162 4.43534 34.5838 4.77308C35.2513 5.11082 35.83 5.601 36.2729 6.20393C36.7159 6.80686 37.0106 7.50561 37.1333 8.24362C37.256 8.98163 37.2033 9.73817 36.9793 10.452C36.7553 11.1658 36.3664 11.8169 35.844 12.3525C35.3216 12.8881 34.6805 13.2931 33.9725 13.5349C33.2645 13.7767 32.5095 13.8484 31.7687 13.7442C31.0278 13.64 30.3219 13.3628 29.7081 12.9351V13.7876H27.6141V0.0269494H29.7081V5.12139ZM30.7506 11.3356C31.2394 11.689 31.8272 11.8792 32.4303 11.8791C32.9592 11.8796 33.478 11.734 33.9294 11.4585C34.3809 11.1829 34.7474 10.788 34.9887 10.3174C35.23 9.84671 35.3366 9.31857 35.2968 8.79117C35.257 8.26378 35.0723 7.75762 34.7631 7.32851C34.4539 6.8994 34.0323 6.564 33.5446 6.35931C33.0569 6.15461 32.5222 6.08856 31.9994 6.16844C31.4765 6.24833 30.9859 6.47104 30.5816 6.81203C30.1773 7.15301 29.8751 7.59902 29.7081 8.10088C29.5087 8.68767 29.5087 9.32392 29.7081 9.91071C29.897 10.4835 30.2618 10.9822 30.7506 11.3356ZM4.96581 0.0269494H0V13.7876H4.96581C5.86935 13.7876 6.76404 13.6097 7.5988 13.2639C8.43357 12.9181 9.19205 12.4113 9.83095 11.7724C10.4698 11.1335 10.9766 10.375 11.3224 9.54029C11.6682 8.70552 11.8462 7.81083 11.8462 6.90729C11.8462 6.00375 11.6682 5.10906 11.3224 4.2743C10.9766 3.43954 10.4698 2.68105 9.83095 2.04215C9.19205 1.40326 8.43357 0.896454 7.5988 0.550684C6.76404 0.204915 5.86935 0.0269494 4.96581 0.0269494ZM4.96581 11.6936H2.09402V2.12097H4.96581C6.23522 2.12097 7.45264 2.62524 8.35025 3.52285C9.24786 4.42046 9.75214 5.63788 9.75214 6.90729C9.75214 8.1767 9.24786 9.39412 8.35025 10.2917C7.45264 11.1893 6.23522 11.6936 4.96581 11.6936ZM39.4034 4.26581L42.1197 10.3714L44.8299 4.27778H47.1064C46.6427 5.31282 41.7068 16.3423 41.7068 16.3423C41.5636 16.6664 41.3577 16.9591 41.1011 17.2035C40.8445 17.4479 40.5421 17.6392 40.2114 17.7665C39.8807 17.8938 39.5281 17.9545 39.1738 17.9453C38.8196 17.936 38.4706 17.8568 38.147 17.7124L37.4261 17.3893L38.2697 15.4987L38.5688 15.6333C38.7021 15.6926 38.8459 15.725 38.9918 15.7287C39.1376 15.7323 39.2828 15.7072 39.419 15.6546C39.5551 15.6021 39.6796 15.5233 39.7852 15.4226C39.8909 15.3219 39.9756 15.2014 40.0346 15.068C40.0376 15.065 40.9799 12.941 40.9799 12.941L37.1269 4.26581H39.4034Z" fill="black"/>
</svg>
