<svg width="141" height="17" viewBox="0 0 141 17" fill="none" xmlns="http://www.w3.org/2000/svg">
<path fill-rule="evenodd" clip-rule="evenodd" d="M140.714 1.62378V2.1394H139.596V15.4037H140.725V15.9157H136.633V15.4037H137.758V2.1394H135.108V16.3841L126.321 2.87287V15.4037H127.45V15.9157H120.086V15.4037H121.814L120.467 11.3805H115.888L114.476 15.4037H115.725V15.9157H109.055V15.4037H110.18V3.28682L105.823 16.0682L101.208 3.65719V15.4037H102.435V15.9157H98.3249C97.2791 15.9157 95.3583 15.1241 95.3583 12.2193V10.992C95.3583 9.33983 94.5013 8.64266 92.7984 8.64266H91.6328V15.4037H93.3684V15.9157H83.7969V15.4037H85.5253L84.1782 11.3805H79.5812L78.1687 15.4037H79.4215V15.9157H76.5928V15.4037H77.5878L82.6531 0.995605L87.5878 15.4037H89.8536V2.1394H88.7315V1.62378H93.0888C96.0191 1.62378 97.5369 3.17062 97.5369 5.2004C97.5283 5.91392 97.2943 6.60646 96.8685 7.17903C96.4426 7.75161 95.8467 8.17493 95.1658 8.38849C96.7708 8.84601 97.29 10.1859 97.29 11.7872V13.8823C97.29 14.8409 97.8456 15.4037 98.4774 15.4037H100.71V2.1394H99.5849V1.62378H102.49L106.422 12.4916L110.173 1.62378H113.151V2.1394H112.021V15.4037H113.902L118.942 0.995605L123.84 15.4037H125.79V2.1394H124.665V1.62378H127.813L134.578 12.0305V2.1394H133.452V1.62378H140.714ZM81.9087 4.62669L79.7519 10.8758L84.0148 10.8903L81.9087 4.62669ZM91.6328 8.12705H92.7875C94.5776 8.12705 95.4563 6.40229 95.4563 5.28028C95.4563 3.22872 94.3053 2.1394 92.5914 2.1394H91.6328V8.12705ZM118.22 4.62669L116.059 10.8758L120.307 10.8903L118.22 4.62669ZM57.6858 8.78067C57.6858 5.46549 60.1113 1.28249 63.8586 1.28249C67.428 1.28249 70.0787 5.46186 70.0678 8.78067C70.0678 12.6296 67.388 16.2607 63.8586 16.2607C60.3292 16.2607 57.6858 12.4118 57.6858 8.78067ZM60.0641 8.78067C60.0641 11.0428 60.2675 15.7632 63.8586 15.7632C67.4606 15.7632 67.693 11.0138 67.693 8.78067C67.693 6.54756 67.3844 1.79447 63.8586 1.79447C60.3328 1.79447 60.0641 6.51851 60.0641 8.78067ZM52.9945 2.13944H54.1238V15.4038H52.9945V15.9158H57.0867V15.4038H55.9611V2.13944H57.0867V1.62383H52.9945V2.13944ZM39.142 13.9768C39.142 14.9354 39.6975 15.52 40.3293 15.52C40.6469 15.5139 40.9493 15.3835 41.1718 15.1569L41.4913 15.5672C41.3241 15.7355 41.123 15.8662 40.9014 15.9508C40.6798 16.0353 40.4427 16.0716 40.2059 16.0574C39.1601 16.0574 37.2393 15.2658 37.2393 12.3609V10.992C37.2393 9.34714 36.3678 8.64271 34.6975 8.64271H33.532V15.4038H35.2712V15.9158H30.5726V15.4038H31.6946V2.13944H30.5726V1.62383H34.9771C37.8747 1.62383 39.3889 3.17067 39.3889 5.20044C39.3805 5.91351 39.1471 6.60571 38.7219 7.17823C38.2968 7.75075 37.7016 8.17434 37.0214 8.38853C38.6264 8.84605 39.142 10.1714 39.142 11.7872V13.9768ZM33.532 8.1271H34.6903C36.4513 8.1271 37.3301 6.40233 37.3301 5.28033C37.3301 3.22877 36.1754 2.13944 34.4942 2.13944H33.532V8.1271ZM23.8115 1.28249C20.0424 1.28249 17.6023 5.46549 17.6023 8.78067C17.6023 12.4118 20.2458 16.2607 23.8115 16.2607C27.3772 16.2607 30.017 12.6296 30.017 8.78067C30.017 5.46186 27.3808 1.28249 23.8115 1.28249ZM23.8115 15.7632C20.1986 15.7632 19.9952 11.0428 19.9952 8.78067C19.9952 6.51851 20.2639 1.79447 23.8115 1.79447C27.3591 1.79447 27.6495 6.54756 27.6495 8.78067C27.6495 11.0138 27.4172 15.7632 23.8115 15.7632ZM14.0583 2.13944H12.9291V1.62383H17.0213V2.13944H15.8957V15.4038H17.0213V15.9158H12.9291V15.4038H14.0583V2.13944ZM8.35037 10.3203H9.65756V12.9128C9.66381 13.2837 9.5964 13.6521 9.45924 13.9967C9.32207 14.3413 9.11788 14.6553 8.8585 14.9204C8.59911 15.1856 8.28969 15.3966 7.94816 15.5412C7.60664 15.6859 7.23979 15.7614 6.86889 15.7632C3.47383 15.7632 3.1325 11.4677 3.1325 8.78067C3.1325 6.33332 3.39394 1.79447 7.12669 1.79447C8.55008 1.79447 10.1042 3.06535 10.4273 5.86854H10.8921V1.35874H10.4237C10.4184 1.46034 10.3917 1.55969 10.3455 1.65033C10.2993 1.74098 10.2345 1.8209 10.1554 1.88492C10.0764 1.94894 9.98471 1.99562 9.88643 2.02195C9.78815 2.04828 9.68543 2.05366 9.58494 2.03775C9.39667 2.03775 9.1961 1.93114 8.94568 1.79802C8.52958 1.57684 7.97583 1.28249 7.11217 1.28249C2.90375 1.28249 0.725098 5.76324 0.725098 8.78067C0.725098 11.9542 3.12161 16.2462 6.85436 16.2462C7.98088 16.2462 8.52892 15.8658 9.0112 15.5312C9.39012 15.2682 9.72844 15.0334 10.2748 15.0334C10.6561 15.0334 10.9139 15.3965 10.9611 15.9012H11.4804V10.3203H12.606V9.80827H8.35037V10.3203ZM49.7083 10.3201H48.3866V9.80811H52.6895V10.3201H51.5602V15.9337H51.0155C50.9683 15.429 50.7105 15.0659 50.3293 15.0659C49.7927 15.0659 49.4567 15.2978 49.0785 15.5587C48.5917 15.8946 48.035 16.2787 46.8906 16.2787C43.1615 16.2787 40.7614 11.9722 40.7614 8.79867C40.7614 5.78124 42.9219 1.30049 47.1484 1.30049C48.0241 1.30049 48.5834 1.5968 49.0014 1.81823C49.2508 1.95031 49.4499 2.05575 49.6357 2.05575C49.7379 2.07236 49.8425 2.06691 49.9425 2.03978C50.0424 2.01264 50.1354 1.96444 50.2152 1.89841C50.295 1.83238 50.3597 1.75005 50.4051 1.65695C50.4504 1.56384 50.4753 1.46211 50.4781 1.35859H50.932V5.86839H50.4745C50.1513 3.06519 48.5791 1.79432 47.1593 1.79432C43.4266 1.79432 43.1651 6.33317 43.1651 8.78052C43.1651 11.4675 43.5065 15.7631 46.9015 15.7631C47.2734 15.7617 47.6413 15.6867 47.9841 15.5424C48.3268 15.3981 48.6376 15.1874 48.8985 14.9224C49.1595 14.6574 49.3654 14.3434 49.5043 13.9985C49.6433 13.6536 49.7127 13.2845 49.7083 12.9127V10.3201Z" fill="black"/>
</svg>
