<svg width="121" height="41" viewBox="0 0 121 41" fill="none" xmlns="http://www.w3.org/2000/svg">
<g clip-path="url(#clip0_71_1909)">
<path d="M30.2275 14.8911H16.104V19.0454H26.1569C25.6717 24.8675 20.8199 27.3577 16.2423 27.3577C10.3886 27.3577 5.2797 22.7485 5.2797 16.2957C5.2797 10.0066 10.1497 5.16206 16.2556 5.16206C20.9655 5.16206 23.7419 8.16531 23.7419 8.16531L26.6529 5.15236C26.6529 5.15236 22.9219 0.995605 16.1064 0.995605C7.43388 0.995605 0.725098 8.3145 0.725098 16.2205C0.725098 23.9675 7.0324 31.5217 16.3272 31.5217C24.5 31.5217 30.481 25.924 30.481 17.6457C30.481 15.899 30.2275 14.8899 30.2275 14.8899V14.8911Z" fill="#4285F4"/>
<path d="M42.1835 11.8818C36.4378 11.8818 32.3198 16.3697 32.3198 21.6121C32.3198 26.9284 36.314 31.5036 42.2514 31.5036C47.6259 31.5036 52.0289 27.3966 52.0289 21.7261C52.0289 15.2283 46.9067 11.8818 42.1835 11.8818ZM42.2405 15.7354C45.0666 15.7354 47.7436 18.0193 47.7436 21.7006C47.7436 25.303 45.0751 27.6525 42.2271 27.6525C39.0965 27.6525 36.6258 25.1454 36.6258 21.6727C36.6258 18.2765 39.0662 15.7354 42.2405 15.7354Z" fill="#EA4335"/>
<path d="M63.5131 11.8818C57.7674 11.8818 53.6506 16.3697 53.6506 21.6121C53.6506 26.9284 57.6436 31.5036 63.581 31.5036C68.9555 31.5036 73.3585 27.3966 73.3585 21.7261C73.3585 15.2283 68.2363 11.8818 63.5131 11.8818ZM63.5701 15.7354C66.3962 15.7354 69.0732 18.0193 69.0732 21.7006C69.0732 25.303 66.4047 27.6525 63.5579 27.6525C60.4261 27.6525 57.9554 25.1454 57.9554 21.6727C57.9554 18.2765 60.3958 15.7354 63.5701 15.7354Z" fill="#FBBC05"/>
<path d="M84.554 11.8914C79.2801 11.8914 75.1343 16.5115 75.1343 21.6956C75.1343 27.6002 79.9399 31.5204 84.463 31.5204C87.2528 31.5204 88.7459 30.4106 89.8436 29.137V31.0777C89.8436 34.4618 87.7889 36.4898 84.6862 36.4898C81.689 36.4898 80.1862 34.2604 79.6634 32.9965L75.8936 34.5734C77.2278 37.402 79.923 40.3518 84.7177 40.3518C89.9613 40.3518 93.9579 37.049 93.9579 30.1231V12.2395H89.8436V14.1438C88.5785 12.7804 86.844 11.8926 84.554 11.8926V11.8914ZM84.9348 15.7376C87.5208 15.7376 90.176 17.9452 90.176 21.7162C90.176 25.5479 87.5269 27.6596 84.8778 27.6596C82.0662 27.6596 79.4511 25.3768 79.4511 21.7514C79.4511 17.984 82.1681 15.7364 84.9348 15.7364V15.7376Z" fill="#4285F4"/>
<path d="M111.884 11.8684C106.911 11.8684 102.732 15.8262 102.732 21.6665C102.732 27.8525 107.388 31.512 112.362 31.512C116.513 31.512 119.06 29.2402 120.581 27.206L117.185 24.9488C116.304 26.3157 114.833 27.65 112.378 27.65C109.619 27.65 108.351 26.1399 107.565 24.6771L120.72 19.2188L120.042 17.6129C118.772 14.4811 115.807 11.8647 111.884 11.8647V11.8684ZM112.055 15.6419C113.848 15.6419 115.137 16.5952 115.685 17.7378L106.9 21.4094C106.522 18.5663 109.214 15.6419 112.055 15.6419Z" fill="#EA4335"/>
<path d="M100.732 2.01074H96.7028V30.9297H100.732V2.01074Z" fill="#34A853"/>
</g>
<defs>
<clipPath id="clip0_71_1909">
<rect width="120" height="39.3454" fill="white" transform="translate(0.725098 0.995605)"/>
</clipPath>
</defs>
</svg>
