<svg width="61" height="61" viewBox="0 0 61 61" fill="none" xmlns="http://www.w3.org/2000/svg">
<path fill-rule="evenodd" clip-rule="evenodd" d="M33.5989 27.8122V28.4513H20.7026V27.8122C22.715 27.8122 25.1482 26.7326 25.1482 23.6722V8.87864C25.0093 4.63943 22.8381 1.63863 16.638 1.63863V28.4513H7.47291V27.8122C9.45756 27.8122 11.9106 26.7326 11.9106 23.6722V1.6426C8.14769 1.6426 3.86481 6.40577 2.70974 9.70029H2.20564L3.39643 0.995605H33.5989V1.62276C31.5825 1.62276 29.8796 2.36898 29.8796 5.75877V14.1499H40.2554V5.65557C40.2554 2.20624 38.4017 1.68626 36.5401 1.68626V0.995605H57.0098L58.1649 9.69632H57.6806C56.5256 6.4018 53.2747 1.88076 48.3012 1.88076H44.9709V14.1181C50.1509 14.0903 50.4883 11.1054 50.6391 7.95777H51.1352L52.7746 21.1557H52.2347C51.4369 17.8572 49.9961 15.0549 44.9868 14.9914V27.5701H49.3888C54.3663 27.5701 57.6132 23.0491 58.7682 19.7545H59.2525L58.0815 28.4552H36.5401V27.7686C38.4017 27.7686 40.2554 27.2406 40.2554 23.7993V15.0311H29.8796V23.6722C29.8796 27.062 31.5825 27.8122 33.5989 27.8122ZM0.764791 33.2978H5.61528C7.81824 33.2978 9.48138 34.5084 10.045 35.7428L17.1342 51.3105L23.5367 36.2668C23.8755 35.3577 24.4945 34.5798 25.3043 34.0454C26.1141 33.511 27.0727 33.2478 28.0418 33.2938H59.7288L60.7251 42.0263H60.2369C59.574 39.8352 56.1922 33.9408 51.5044 33.9408V55.9744C51.5044 59.0308 53.9376 60.1104 55.95 60.1104V60.7534H46.7333V34.036C41.4025 34.036 39.8783 38.5055 39.4814 42.0263H38.9932C38.6716 38.9183 37.203 34.1829 31.249 34.1829H28.665V46.4203C33.8053 46.3726 34.1427 43.3957 34.2895 40.2559H34.7778L36.4052 53.4578H35.8653C35.0715 50.1673 33.6346 47.3689 28.6571 47.2896V59.8683H33.0233C37.9969 59.8683 41.2477 55.3472 42.4028 52.0487H42.9069L41.7161 60.7534H19.4245V60.0628C21.1075 60.0628 23.8145 59.3443 23.8145 55.899V38.0887L15.2885 58.0027H14.8915L6.24243 39.1009V55.9744C6.24243 59.3642 9.09239 60.1104 10.6484 60.1104V60.7534H0.725098V60.1104C2.73753 60.1104 5.17072 59.0308 5.17072 55.9744V38.0768C5.17072 35.0165 2.70975 33.9408 0.764791 33.9408V33.2978Z" fill="#EB1C2D"/>
</svg>
