<svg width="61" height="60" viewBox="0 0 61 60" fill="none" xmlns="http://www.w3.org/2000/svg">
<path d="M0.774902 0H60.7749V60H0.774902V0Z" fill="#014F9D"/>
<path fill-rule="evenodd" clip-rule="evenodd" d="M15.1038 15.2622L13.0393 15.7444C13.1539 16.3246 13.2046 16.9155 13.1904 17.5067V26.4266H15.2393V20.8889C15.6754 20.4802 16.237 20.2311 16.8326 20.1822C17.4082 20.1822 17.6193 20.4666 17.6193 21.2355V26.42H19.5926V21.0333C19.6249 20.5472 19.5584 20.0596 19.3971 19.6C19.1549 18.92 18.3726 18.4889 17.3971 18.4889C16.5938 18.5022 15.8216 18.8016 15.2193 19.3333C15.2193 19.2422 15.2504 18.9222 15.2504 18.6844V17.1444C15.2617 16.5142 15.2163 15.8843 15.1149 15.2622H15.1038ZM4.59265 15.9533V17.7022H7.15042V26.4244H9.29264V17.7022H11.7926L12.1371 15.9533H4.59265ZM24.3304 18.5422C23.8703 18.5186 23.4109 18.6005 22.9873 18.7815C22.5637 18.9625 22.187 19.2379 21.886 19.5866C21.206 20.34 20.9215 21.2578 20.9215 22.6466C20.9215 25.0666 22.3526 26.6466 24.5682 26.6466C25.6342 26.6505 26.6663 26.2721 27.4771 25.58L26.6904 24.3711C26.152 24.8553 25.4566 25.1284 24.7326 25.14C23.6926 25.14 23.1082 24.4733 23.1082 23.2733V23.2111H27.566V22.7444C27.566 21.1311 27.2504 20.0933 26.5438 19.3711C26.0482 18.8489 25.2038 18.5422 24.3304 18.5422ZM24.3593 20.0222C24.5336 20.0105 24.7079 20.0456 24.8641 20.1237C25.0204 20.2018 25.1529 20.3202 25.2482 20.4666C25.426 20.7511 25.4882 21.0533 25.4882 21.6244V21.7155H23.1415V21.6866C23.1415 20.6178 23.586 20.0133 24.3482 20.0133L24.3593 20.0222ZM39.2482 29.1333L37.186 29.6155C37.2984 30.1967 37.3483 30.7882 37.3349 31.38V40.2889H39.386V34.76C39.8218 34.3489 40.3844 34.0982 40.9815 34.0489C41.5549 34.0489 41.7637 34.3378 41.7637 35.1022V40.2889H43.7349V34.8889C43.7658 34.403 43.7001 33.9158 43.5415 33.4555C43.2993 32.7889 42.5171 32.3555 41.5415 32.3555C40.7381 32.364 39.9639 32.6578 39.3571 33.1844C39.3571 33.0978 39.3904 32.78 39.3904 32.5378V31.0022C39.4011 30.3719 39.355 29.742 39.2526 29.12L39.2482 29.1333ZM4.51709 29.8155L7.01931 40.3755H9.41264L10.286 36.0866C10.606 34.5489 10.786 33.0733 10.786 33.0733C10.8947 34.0949 11.0593 35.1098 11.2793 36.1133L12.2149 40.3755H14.5193L17.0504 29.8155H14.8282L13.9749 33.7911C13.7638 34.8178 13.4326 36.9422 13.4038 37.2755C13.4038 37.2755 13.1482 35.4822 12.9593 34.5022L11.9904 29.8155H9.67931L8.7482 34.0489C8.43264 35.4933 8.25042 36.9866 8.2082 37.3933C8.0837 36.2337 7.89676 35.0817 7.6482 33.9422L6.74598 29.8155H4.52376H4.51709ZM34.6238 30.24L32.5749 30.7511C32.508 31.3561 32.4828 31.9649 32.4993 32.5733H31.7326V33.9578H32.4993V38.1466C32.4993 38.8511 32.5149 39.0022 32.6349 39.3378C32.8749 40.0178 33.6904 40.4666 34.7149 40.4666C35.2795 40.4624 35.8374 40.3437 36.3549 40.1178L36.1082 38.9155C35.8749 38.9993 35.6311 39.0502 35.3838 39.0666C34.6904 39.0666 34.5126 38.8089 34.5126 37.8311V33.9578H35.8082L36.3215 32.5733H34.5126C34.5129 31.794 34.5529 31.0152 34.6326 30.24H34.6238ZM54.3304 32.3911L52.5237 32.8889C52.6904 33.3333 52.8104 34.1089 52.8104 35.1466V40.2889H54.8326V34.8355C54.9757 34.6413 55.1611 34.4821 55.3748 34.3701C55.5885 34.2581 55.8248 34.1961 56.066 34.1889C56.272 34.1856 56.4752 34.237 56.6549 34.3378L57.2082 32.56C56.9751 32.442 56.716 32.3847 56.4549 32.3933C56.227 32.3922 56.0009 32.4336 55.7882 32.5155C55.3367 32.7511 54.9446 33.0862 54.6415 33.4955C54.6237 33.1055 54.5148 32.725 54.3237 32.3844L54.3304 32.3911ZM28.026 32.4089C27.3003 32.4069 26.5824 32.5584 25.9193 32.8533C25.4817 33.0209 25.0619 33.2316 24.666 33.4822L25.526 34.9333C26.3549 34.3755 27.1104 34.0444 27.7482 34.0444C28.486 34.0444 28.6371 34.3311 28.6371 35.1889V35.5044C28.4749 35.4911 28.3371 35.4933 28.1926 35.4933C25.7482 35.4933 24.4882 36.3333 24.4882 38.1422C24.4882 39.6778 25.4215 40.5533 27.1549 40.5533C27.7043 40.5771 28.2476 40.4304 28.7104 40.1333C28.8757 40.0085 29.0317 39.8719 29.1771 39.7244C29.4215 40.151 29.8052 40.4806 30.2638 40.6578L31.3326 39.4222C30.7438 38.9778 30.6104 38.6689 30.6104 37.8422V37.7089L30.6526 35.1155C30.6682 34.2822 30.6238 34.0444 30.5215 33.7289C30.2193 32.8711 29.326 32.3955 28.0326 32.3955L28.026 32.4089ZM20.3326 32.4089C19.876 32.3885 19.4206 32.4714 19.0004 32.6515C18.5803 32.8315 18.2061 33.1041 17.906 33.4489C17.2393 34.2022 16.9438 35.1178 16.9438 36.5066C16.9438 38.9311 18.3749 40.5066 20.5882 40.5066C21.6547 40.5109 22.6871 40.1315 23.4971 39.4378L22.7126 38.2222C22.1737 38.7055 21.4787 38.9785 20.7549 38.9911C19.7171 38.9911 19.1282 38.3244 19.1282 37.1266V37.06H23.5882V36.5978C23.5882 34.9889 23.2726 33.9444 22.5615 33.22C22.066 32.7089 21.2282 32.4089 20.3393 32.4089H20.3326ZM48.1593 32.4089C47.7029 32.3882 47.2478 32.4709 46.8279 32.651C46.4081 32.8312 46.0344 33.1039 45.7349 33.4489C45.0682 34.2022 44.7704 35.1178 44.7704 36.5066C44.7704 38.9311 46.2038 40.5066 48.4149 40.5066C49.4816 40.5123 50.5145 40.1327 51.3237 39.4378L50.5393 38.2222C49.9997 38.7058 49.3038 38.9788 48.5793 38.9911C47.5415 38.9911 46.9549 38.3244 46.9549 37.1266V37.06H51.4126V36.5978C51.4126 34.9889 51.0971 33.9444 50.3904 33.22C49.8926 32.7089 49.0571 32.4089 48.1682 32.4089H48.1593ZM20.3638 33.8844C20.538 33.873 20.7122 33.9081 20.8684 33.9862C21.0246 34.0643 21.1572 34.1826 21.2526 34.3289C21.4326 34.6155 21.4926 34.9155 21.4926 35.4866V35.5778H19.1593V35.5555C19.1593 34.4889 19.5949 33.8844 20.3638 33.8844ZM48.1904 33.8844C48.3648 33.8723 48.5392 33.9071 48.6955 33.9853C48.8519 34.0635 48.9844 34.1821 49.0793 34.3289C49.2593 34.6155 49.3215 34.9155 49.3215 35.4866V35.5778H46.9837V35.5555C46.9837 34.4866 47.4282 33.8822 48.1904 33.8822V33.8844ZM28.5526 36.9111H28.6415L28.6104 38.5689C28.4806 38.7247 28.3201 38.8521 28.1389 38.943C27.9576 39.034 27.7596 39.0867 27.5571 39.0978C27.0438 39.0978 26.6682 38.6889 26.6682 38.0866C26.6526 37.1689 27.1371 36.9111 28.5526 36.9111ZM15.5593 43.22L13.4926 43.7022C13.6061 44.2832 13.6567 44.8748 13.6438 45.4666V54.3844H15.6904V48.8555C16.1286 48.4472 16.6914 48.1983 17.2882 48.1489C17.8615 48.1489 18.0704 48.4333 18.0704 49.2V54.3844H20.046V48.9933C20.0786 48.507 20.0113 48.0192 19.8482 47.56C19.6038 46.88 18.826 46.4489 17.8482 46.4489C17.0426 46.4584 16.2673 46.7574 15.6638 47.2911C15.6638 47.1977 15.6926 46.88 15.6926 46.64V45.1111C15.7028 44.4796 15.6589 43.8484 15.5615 43.2244L15.5593 43.22ZM54.766 43.2355L52.7037 43.7044C52.7828 44.4751 52.817 45.2498 52.806 46.0244V51.7777C52.806 52.8889 52.8371 53.1111 52.9904 53.5066C53.2326 54.1577 53.9215 54.5622 54.7837 54.5622C55.1938 54.5654 55.6011 54.4947 55.986 54.3533L55.6393 53.1466C55.5674 53.1687 55.4923 53.1785 55.4171 53.1755C55.3368 53.1783 55.2571 53.1605 55.1856 53.124C55.1141 53.0874 55.053 53.0333 55.0082 52.9666C54.8904 52.7444 54.8749 52.5733 54.8749 51.2489V45.2489C54.8977 44.5804 54.862 43.9111 54.7682 43.2489L54.766 43.2355ZM9.62376 43.68C8.79901 43.6794 7.98991 43.9051 7.2846 44.3326C6.57929 44.7601 6.00482 45.373 5.62376 46.1044C5.14598 47.0066 4.91709 48.0489 4.91709 49.3577C4.91709 50.8977 5.33931 52.1622 6.18376 53.1089C7.04153 54.0911 8.15709 54.5533 9.60376 54.5533C10.6605 54.5977 11.6964 54.2503 12.5126 53.5777L11.5482 52.2444C11.0509 52.6765 10.4137 52.9134 9.75487 52.9111C9.34121 52.9276 8.93141 52.8258 8.57361 52.6176C8.2158 52.4094 7.92483 52.1034 7.73487 51.7355C7.41709 51.1622 7.29042 50.3622 7.29042 48.9333C7.29042 47.7155 7.47264 46.8378 7.87709 46.2378C8.07877 45.9551 8.3457 45.7252 8.6552 45.5678C8.9647 45.4103 9.30763 45.3299 9.65487 45.3333C10.2621 45.3411 10.8499 45.548 11.3282 45.9222L12.2749 44.4933C11.7015 43.9955 10.6615 43.6644 9.62376 43.6644V43.68ZM30.8993 46.4644L29.1082 46.9777C29.2957 47.562 29.3858 48.1731 29.3749 48.7866V54.3755H31.3949V48.9311C31.866 48.5133 32.3904 48.2378 32.7949 48.2378C33.3238 48.2378 33.4749 48.4933 33.4749 49.3666V54.3844H35.4638V48.7511C35.4797 48.3782 35.4278 48.0054 35.3104 47.6511C35.0726 46.9844 34.3193 46.54 33.4593 46.54C32.9789 46.5438 32.5057 46.6563 32.0749 46.8689C31.7688 47.0444 31.4721 47.2358 31.186 47.4422C31.1742 47.1015 31.0755 46.7695 30.8993 46.4777V46.4644ZM38.7637 46.4644L36.9682 46.9777C37.1565 47.5619 37.2473 48.173 37.2371 48.7866V54.3755H39.2571V48.9311C39.7238 48.5133 40.2526 48.2378 40.6571 48.2378C41.1838 48.2378 41.3371 48.4933 41.3371 49.3666V54.3844H43.3237V48.7511C43.3425 48.3782 43.2913 48.0051 43.1726 47.6511C42.9326 46.9844 42.1793 46.54 41.3193 46.54C40.8391 46.5451 40.3661 46.6575 39.9349 46.8689C39.606 47.0533 39.3482 47.2355 39.046 47.4422C39.0355 47.1019 38.9384 46.77 38.7637 46.4777V46.4644ZM24.9393 46.4955C24.2122 46.4933 23.4927 46.6448 22.8282 46.94C22.3911 47.1097 21.9714 47.321 21.5749 47.5711L22.4371 49.0177C23.2638 48.46 24.0149 48.1422 24.6593 48.1422C25.3993 48.1422 25.566 48.4289 25.566 49.2889V49.6044C25.3993 49.5889 25.2638 49.5889 25.1215 49.5889C22.6771 49.5889 21.4126 50.4333 21.4126 52.2422C21.4126 53.7777 22.3482 54.6511 24.066 54.6511C24.6155 54.676 25.1592 54.5292 25.6215 54.2311C25.7887 54.1077 25.9455 53.971 26.0904 53.8222C26.3336 54.2486 26.7155 54.5788 27.1726 54.7577L28.2438 53.52C27.6549 53.0755 27.5215 52.7689 27.5215 51.94V51.8044L27.5638 49.2111C27.5815 48.3866 27.5349 48.1422 27.4282 47.8289C27.1282 46.9666 26.2371 46.4955 24.946 46.4955H24.9393ZM48.1126 46.4955C47.6542 46.4764 47.1975 46.5619 46.777 46.7456C46.3566 46.9293 45.9835 47.2062 45.686 47.5555C45.0193 48.3066 44.7238 49.2266 44.7238 50.6155C44.7238 53.0355 46.1549 54.6155 48.3682 54.6155C49.4347 54.6198 50.4671 54.2404 51.2771 53.5466L50.4926 52.34C49.9533 52.8226 49.2585 53.0954 48.5349 53.1089C47.4971 53.1089 46.9082 52.4289 46.9082 51.2422V51.18H51.366V50.7133C51.366 49.1044 51.0504 48.0622 50.3415 47.3422C49.846 46.8289 49.0082 46.5266 48.1193 46.5266L48.1126 46.4955ZM48.1415 47.9689C48.3158 47.9574 48.49 47.9926 48.6462 48.0707C48.8024 48.1488 48.935 48.267 49.0304 48.4133C49.2104 48.7 49.2682 49.0022 49.2682 49.5755V49.6644H46.9349V49.6355C46.9349 48.5666 47.3793 47.96 48.1393 47.96L48.1415 47.9689ZM25.4415 51.0066H25.5349L25.5038 52.6644C25.3749 52.8214 25.2146 52.9495 25.0332 53.0406C24.8518 53.1317 24.6532 53.1837 24.4504 53.1933C23.9349 53.1933 23.5615 52.7866 23.5615 52.1844C23.5615 51.2689 24.0393 51.0066 25.4393 51.0066H25.4415Z" fill="white"/>
</svg>
