<svg width="43" height="42" viewBox="0 0 43 42" fill="none" xmlns="http://www.w3.org/2000/svg">
<g filter="url(#filter0_d_32_200)">
<path d="M26.949 16C26.949 21.7895 22.157 26.5 16.2245 26.5C10.2919 26.5 5.5 21.7895 5.5 16C5.5 10.2105 10.2919 5.5 16.2245 5.5C22.157 5.5 26.949 10.2105 26.949 16Z" stroke="white"/>
<path d="M18.5306 16C18.5306 17.2332 17.5077 18.25 16.2245 18.25C14.9413 18.25 13.9184 17.2332 13.9184 16C13.9184 14.7668 14.9413 13.75 16.2245 13.75C17.5077 13.75 18.5306 14.7668 18.5306 16Z" stroke="white"/>
<line x1="5.50513" y1="15.775" x2="13.9235" y2="15.775" stroke="white"/>
<line x1="18.5816" y1="15.775" x2="26.8877" y2="15.775" stroke="white"/>
</g>
<defs>
<filter id="filter0_d_32_200" x="0" y="0" width="42.449" height="42" filterUnits="userSpaceOnUse" color-interpolation-filters="sRGB">
<feFlood flood-opacity="0" result="BackgroundImageFix"/>
<feColorMatrix in="SourceAlpha" type="matrix" values="0 0 0 0 0 0 0 0 0 0 0 0 0 0 0 0 0 0 127 0" result="hardAlpha"/>
<feOffset dx="5" dy="5"/>
<feGaussianBlur stdDeviation="5"/>
<feComposite in2="hardAlpha" operator="out"/>
<feColorMatrix type="matrix" values="0 0 0 0 0 0 0 0 0 0 0 0 0 0 0 0 0 0 0.5 0"/>
<feBlend mode="normal" in2="BackgroundImageFix" result="effect1_dropShadow_32_200"/>
<feBlend mode="normal" in="SourceGraphic" in2="effect1_dropShadow_32_200" result="shape"/>
</filter>
</defs>
</svg>
