<?xml version="1.0" encoding="iso-8859-1"?>
<!-- Generator: Adobe Illustrator 26.3.1, SVG Export Plug-In . SVG Version: 6.00 Build 0)  -->
<!DOCTYPE svg [
	<!ENTITY ns_extend "http://ns.adobe.com/Extensibility/1.0/">
	<!ENTITY ns_ai "http://ns.adobe.com/AdobeIllustrator/10.0/">
	<!ENTITY ns_graphs "http://ns.adobe.com/Graphs/1.0/">
	<!ENTITY ns_vars "http://ns.adobe.com/Variables/1.0/">
	<!ENTITY ns_imrep "http://ns.adobe.com/ImageReplacement/1.0/">
	<!ENTITY ns_sfw "http://ns.adobe.com/SaveForWeb/1.0/">
	<!ENTITY ns_custom "http://ns.adobe.com/GenericCustomNamespace/1.0/">
	<!ENTITY ns_adobe_xpath "http://ns.adobe.com/XPath/1.0/">
]>
<svg version="1.2" baseProfile="tiny" id="Layer_1" xmlns:x="&ns_extend;" xmlns:i="&ns_ai;" xmlns:graph="&ns_graphs;"
	 xmlns="http://www.w3.org/2000/svg" xmlns:xlink="http://www.w3.org/1999/xlink" x="0px" y="0px" width="101px" height="25.2px"
	 viewBox="0 0 101 25.2" overflow="visible" xml:space="preserve">
<metadata>
	<sfw  xmlns="&ns_sfw;">
		<slices></slices>
		<sliceSourceBounds  bottomLeftOrigin="true" height="18.1" width="100" x="0.5" y="41.4"></sliceSourceBounds>
	</sfw>
</metadata>
<g>
	<g>
		<path d="M23.2,14.4L25,3.8h2.8c1.8,0,2.8,0.9,2.8,2.5c0,1.1-0.5,2.2-2,2.6c1.2,0.5,1.5,1.4,1.5,2.3c0,1.2-0.7,3.2-3.6,3.2
			C26.5,14.4,23.2,14.4,23.2,14.4z M26.5,12.7c1.4,0,1.6-1.2,1.6-1.7c0-0.8-0.5-1.2-1.4-1.2h-0.5l-0.5,2.9H26.5z M26.8,8.2
			c0.4,0,0.7,0,0.9-0.1c0.4-0.2,0.8-0.8,0.8-1.5s-0.4-1.1-1.3-1.1h-0.4l-0.4,2.7H26.8z"/>
	</g>
	<g>
		<path d="M34.9,14.4l-0.5-4.3h-0.7L33,14.4h-2.1l1.8-10.6h2.8c2,0,2.8,1.1,2.8,2.9c0,1.4-0.5,2.7-1.8,3.1l0.9,4.6
			C37.4,14.4,34.9,14.4,34.9,14.4z M34.4,8.5c1.3,0,1.6-0.8,1.6-1.8c0-0.7-0.2-1.2-1.2-1.2h-0.4l-0.5,3H34.4z"/>
	</g>
	<g>
		<polygon points="38.2,14.4 40,3.8 42.1,3.8 40.3,14.4 		"/>
	</g>
	<g>
		<path d="M47,6.9c-0.2-1-0.5-1.4-1.1-1.4c-0.5,0-0.9,0.4-0.9,1c0,0.4,0.2,0.8,1.1,1.4c1.4,0.9,2.4,1.7,2.4,3.1
			c0,2.1-1.3,3.6-3.3,3.6c-1.8,0-2.9-1.1-3.1-3.2L44,11c0,1.2,0.6,1.7,1.3,1.7s1.1-0.4,1.1-1.2c0-0.6-0.2-0.8-1.3-1.6
			c-0.9-0.6-1.5-1.1-1.8-1.6C43.1,7.9,43,7.5,43,7c0-2,1.3-3.4,3-3.4c1.5,0,2.6,1,2.9,2.6L47,6.9z"/>
	</g>
	<g>
		<polygon points="50,14.4 51.4,5.7 49.6,5.7 49.9,3.8 55.7,3.8 55.4,5.7 53.5,5.7 52.1,14.4 		"/>
	</g>
	<g>
		<path d="M57.8,14.6c-1.8,0-2.7-1.3-2.7-3.8c0-1.2,0.2-2.4,0.5-3.7c0.7-2.5,2-3.6,3.7-3.6C61,3.6,62,4.8,62,7.3
			c0,1.4-0.2,2.8-0.6,4C60.6,13.7,59.4,14.6,57.8,14.6 M59.4,10.5c0.3-1.5,0.4-2.7,0.4-3.8c0-1-0.2-1.3-0.7-1.3
			c-0.4,0-0.8,0.4-1.1,1.2c-0.5,1.6-0.8,3.6-0.8,5c0,0.8,0.2,1.2,0.7,1.2C58.6,12.8,59.1,12,59.4,10.5"/>
	</g>
	<g>
		<polygon points="62.1,14.4 63.9,3.8 66,3.8 64.6,12.6 67.3,12.6 67,14.4 		"/>
	</g>
	<g>
		<path d="M76.6,14.4L76.4,9c0-0.6,0-1.5,0-1.9c-0.1,0.6-0.2,1-0.4,1.6l-2,5.7h-1.8L71.8,3.8H74v4.7c0,1.2,0,0.8-0.1,2.1l0.3-1.2
			c0.1-0.2,0.1-0.4,0.2-0.6l1.7-5h2l0.1,4.4c0,0.1,0,0.3,0,0.7s0,1,0,1.7c0.3-1.3,0.5-2.1,0.5-2.1l1.4-4.7h2l-3.6,10.6
			C78.5,14.4,76.6,14.4,76.6,14.4z"/>
	</g>
	<g>
		<path d="M84.6,14.4l-0.1-2.3h-2l-0.8,2.3h-2.1l4.2-10.6H86l0.7,10.6C86.7,14.4,84.6,14.4,84.6,14.4z M84.4,7.6V6.4
			c-0.1,0.3-0.2,0.7-0.3,1.1l-0.9,2.8h1.3L84.4,7.6z"/>
	</g>
	<g>
		<path d="M88.1,14.4L87.6,3.8h2.2l0.1,5.7c0,0.2,0,0.4,0,0.7c0,0.4,0,0.8,0,1.4c0.2-1,0.5-1.9,0.6-2.2l1.8-5.6h1.9l-3.8,10.6
			C90.4,14.4,88.1,14.4,88.1,14.4z"/>
	</g>
	<g>
		<polygon points="93.2,14.4 95,3.8 100.5,3.8 100.2,5.6 96.8,5.6 96.4,8.1 99.2,8.1 98.9,9.9 96.1,9.9 95.7,12.6 99.2,12.6 
			98.8,14.4 		"/>
	</g>
	<g>
		<polygon points="23.7,19.3 23.3,21.5 22.7,21.5 23,19.3 22.4,19.3 22.4,18.8 24.4,18.8 24.3,19.3 		"/>
	</g>
	<g>
		<polygon points="27.5,21.5 26.9,21.5 27.1,20.4 26.3,20.4 26.1,21.5 25.5,21.5 25.9,18.8 26.5,18.8 26.3,19.9 27.2,19.9 
			27.4,18.8 28,18.8 		"/>
	</g>
	<g>
		<polygon points="31.6,19.3 30.3,19.3 30.2,19.9 31.3,19.9 31.2,20.4 30.1,20.4 30,21 31.3,21 31.2,21.5 29.3,21.5 29.7,18.8 
			31.6,18.8 		"/>
	</g>
	<g>
		<path d="M36.7,21.5l-0.1-0.6h-0.9l-0.3,0.6h-0.6l1.3-2.7h0.7l0.5,2.7H36.7z M36.5,20.5l-0.2-1.1l-0.5,1.1H36.5z"/>
	</g>
	<g>
		<polygon points="39.5,21 40.5,21 40.5,21.5 38.8,21.5 39.2,18.8 39.8,18.8 		"/>
	</g>
	<g>
		<path d="M43.7,21.5l-0.1-0.6h-0.9l-0.3,0.6h-0.6l1.3-2.7h0.7l0.5,2.7H43.7z M43.5,20.5l-0.2-1.1l-0.5,1.1H43.5z"/>
	</g>
	<g>
		<path d="M47.4,19.6c-0.1-0.2-0.2-0.3-0.5-0.3c-0.2,0-0.4,0.1-0.4,0.3c0,0.1,0.1,0.2,0.4,0.3c0.3,0.1,0.4,0.1,0.5,0.2
			c0.3,0.1,0.4,0.3,0.4,0.6c0,0.5-0.4,0.9-1.1,0.9c-0.3,0-0.6-0.1-0.8-0.2c-0.2-0.1-0.3-0.3-0.3-0.6l0.6-0.1
			c0.1,0.3,0.2,0.4,0.5,0.4s0.4-0.1,0.4-0.3c0-0.1,0-0.2-0.1-0.2s-0.1,0-0.3-0.1c-0.3-0.1-0.4-0.1-0.5-0.2c-0.2-0.1-0.3-0.3-0.3-0.6
			c0-0.2,0.1-0.5,0.3-0.6c0.2-0.2,0.4-0.2,0.7-0.2s0.6,0.1,0.7,0.3c0.1,0.1,0.2,0.2,0.3,0.5L47.4,19.6z"/>
	</g>
	<g>
		<path d="M51,19.8l0.5,1.7h-0.6l-0.3-1.3L50,20.9l-0.1,0.6h-0.6l0.5-2.7h0.6l-0.2,1.3l0.1-0.1c0.1-0.1,0.1-0.1,0.1-0.2l0.9-1h0.6
			L51,19.8z"/>
	</g>
	<g>
		<path d="M54.8,21.5l-0.1-0.6h-0.9l-0.3,0.6h-0.6l1.3-2.7H55l0.5,2.7H54.8z M54.6,20.5l-0.2-1.1L54,20.5H54.6z"/>
	</g>
	<g>
		<path d="M60.9,19.9C60.9,19.8,60.9,19.8,60.9,19.9c0-0.4-0.2-0.6-0.4-0.6s-0.4,0.1-0.5,0.4c-0.1,0.2-0.2,0.5-0.2,0.8
			c0,0.4,0.2,0.6,0.5,0.6s0.4-0.1,0.5-0.5l0.6,0.1c-0.2,0.6-0.6,0.9-1.2,0.9c-0.3,0-0.5-0.1-0.7-0.3s-0.3-0.5-0.3-0.9
			s0.1-0.8,0.3-1.1s0.6-0.5,1-0.5c0.5,0,0.8,0.2,1,0.7c0,0.1,0.1,0.2,0.1,0.4C61.6,19.9,60.9,19.9,60.9,19.9z"/>
	</g>
	<g>
		<path d="M65.3,20c0,0.4-0.1,0.8-0.3,1.1c-0.3,0.3-0.6,0.5-1,0.5c-0.6,0-1.1-0.5-1.1-1.2c0-0.3,0.1-0.7,0.2-1
			c0.2-0.4,0.6-0.7,1-0.7C64.9,18.8,65.3,19.2,65.3,20 M63.7,19.7c-0.1,0.2-0.1,0.5-0.1,0.8c0,0.4,0.2,0.6,0.5,0.6
			c0.2,0,0.4-0.1,0.5-0.4s0.1-0.5,0.1-0.7c0-0.4-0.1-0.6-0.5-0.6C64,19.3,63.8,19.4,63.7,19.7"/>
	</g>
	<g>
		<path d="M67.1,18.8h0.8c0.5,0,0.8,0.1,1,0.4c0.2,0.2,0.2,0.5,0.2,0.8c0,0.6-0.3,1.1-0.7,1.3c-0.2,0.1-0.4,0.1-0.6,0.1
			s-0.2,0-0.2,0h-0.9L67.1,18.8z M67.7,21c0.3,0,0.5-0.1,0.6-0.3s0.2-0.5,0.2-0.8c0-0.5-0.2-0.7-0.6-0.7h-0.3l-0.3,1.7L67.7,21
			L67.7,21z"/>
	</g>
	<g>
		<path d="M74.6,19.9C74.6,19.8,74.6,19.8,74.6,19.9c0-0.4-0.2-0.6-0.4-0.6c-0.2,0-0.4,0.1-0.5,0.4c-0.1,0.2-0.2,0.5-0.2,0.8
			c0,0.4,0.2,0.6,0.5,0.6s0.4-0.1,0.5-0.5l0.6,0.1c-0.2,0.6-0.6,0.9-1.2,0.9c-0.3,0-0.5-0.1-0.7-0.3s-0.3-0.5-0.3-0.9
			s0.1-0.8,0.3-1.1c0.2-0.3,0.6-0.5,1-0.5c0.5,0,0.8,0.2,1,0.7c0,0.1,0.1,0.2,0.1,0.4C75.3,19.9,74.6,19.9,74.6,19.9z"/>
	</g>
	<g>
		<path d="M79,20c0,0.4-0.1,0.8-0.3,1.1c-0.2,0.3-0.6,0.5-0.9,0.5c-0.6,0-1.1-0.5-1.1-1.2c0-0.3,0.1-0.7,0.2-1
			c0.2-0.4,0.6-0.7,1-0.7C78.5,18.8,79,19.2,79,20 M77.4,19.7c-0.1,0.2-0.1,0.5-0.1,0.8c0,0.4,0.2,0.6,0.5,0.6
			c0.2,0,0.4-0.1,0.5-0.4s0.1-0.5,0.1-0.7c0-0.4-0.1-0.6-0.5-0.6C77.7,19.3,77.5,19.4,77.4,19.7"/>
	</g>
	<g>
		<polygon points="83.3,21.5 82.7,21.5 83.1,19.3 82,21.5 81.6,21.5 81.2,19.2 80.9,21.5 80.4,21.5 80.8,18.8 81.8,18.8 82,20.5 
			82.8,18.8 83.8,18.8 		"/>
	</g>
	<g>
		<path d="M85.7,21.5h-0.6l0.5-2.7h1c0.4,0,0.5,0,0.7,0.2c0.2,0.1,0.3,0.4,0.3,0.6s-0.1,0.5-0.3,0.7c-0.2,0.2-0.4,0.2-0.8,0.2h-0.6
			L85.7,21.5z M85.9,20h0.5c0.3,0,0.5-0.1,0.5-0.4c0-0.1,0-0.2-0.1-0.3c-0.1-0.1-0.2-0.1-0.4-0.1h-0.3L85.9,20z"/>
	</g>
	<g>
		<path d="M90.2,21.5l-0.1-0.6h-0.9l-0.3,0.6h-0.6l1.3-2.7h0.7l0.5,2.7H90.2z M90,20.5l-0.2-1.1l-0.5,1.1H90z"/>
	</g>
	<g>
		<path d="M94.4,21.5h-0.5l-0.8-2c0,0.2,0,0.4-0.1,0.9l-0.2,1h-0.5l0.5-2.7h0.7l0.7,1.7c0-0.1,0-0.3,0.1-0.8l0.1-0.9h0.5L94.4,21.5z
			"/>
	</g>
	<g>
		<polygon points="97.6,20.4 97.4,21.5 96.7,21.5 96.9,20.4 96.3,18.8 96.9,18.8 97.3,19.9 98,18.8 98.6,18.8 		"/>
	</g>
	<g>
		<path fill="#FE5201" d="M5.4,8.5C9.1,7,13.2,7.3,16,9.4l0,0l-1.5,2.1l0,0l0,0c-1.5-1.1-3-0.7-3.8,0.3c-0.3,0.3-1,1.5,0.5,2.8
			c0.9,0.7,3,0.7,4.2,0.7h3.8l2-11.5H3.6l-1.1,6.4C3.3,9.5,4.3,9,5.4,8.5"/>
	</g>
	<g>
		<path fill="#FE5201" d="M15.4,17.9c-1.7,0-4.2,0-5.8-1.3c-1.7-1.4-2.7-4-1-6.3c-0.7,0.1-1.5,0.3-2.2,0.6c-2.8,1.1-4.7,3.4-5.1,5.9
			l-0.8,4.7h17.7l0.6-3.6C18.8,17.9,15.4,17.9,15.4,17.9z"/>
	</g>
</g>
</svg>
