<svg width="109" height="92" viewBox="0 0 109 92" fill="none" xmlns="http://www.w3.org/2000/svg">
<path d="M18.8671 62.9104C19.8281 62.9104 20.6072 62.1314 20.6072 61.1703C20.6072 60.2093 19.8281 59.4302 18.8671 59.4302C17.906 59.4302 17.127 60.2093 17.127 61.1703C17.127 62.1314 17.906 62.9104 18.8671 62.9104Z" fill="#206AEA" stroke="#206AEA" stroke-width="0.208816" stroke-linecap="round" stroke-linejoin="round"/>
<path d="M78.3018 73.5631C79.3023 73.5631 80.1134 72.752 80.1134 71.7515C80.1134 70.751 79.3023 69.9399 78.3018 69.9399C77.3013 69.9399 76.4902 70.751 76.4902 71.7515C76.4902 72.752 77.3013 73.5631 78.3018 73.5631Z" fill="#206AEA" stroke="#206AEA" stroke-width="0.208816" stroke-linecap="round" stroke-linejoin="round"/>
<path d="M75.5479 83.7467C76.5484 83.7467 77.3595 82.9356 77.3595 81.9351C77.3595 80.9346 76.5484 80.1235 75.5479 80.1235C74.5474 80.1235 73.7363 80.9346 73.7363 81.9351C73.7363 82.9356 74.5474 83.7467 75.5479 83.7467Z" fill="#206AEA" stroke="#206AEA" stroke-width="0.208816" stroke-linecap="round" stroke-linejoin="round"/>
<path d="M71.3432 12.5361C67.2124 0.359017 56.5573 -0.944791 47.4241 2.96922C38.291 6.88324 40.683 18.8421 34.1601 24.4963C27.6372 30.1492 31.5512 28.6272 28.5073 34.0632C25.4633 39.4992 25.0283 37.5421 15.2432 36.237C7.88141 35.2553 4.08947 53.8423 2.66229 63.1092C2.26622 65.6778 4.42711 67.9167 7.00874 67.6167L26.3321 65.374" stroke="#181818" stroke-width="1.36184" stroke-linecap="round" stroke-linejoin="round"/>
<path d="M80.6934 23.625C80.6934 23.625 82.8672 24.9301 89.8265 26.2339C96.7844 27.539 107.985 56.8772 107.656 59.503C107.221 62.982 99.3934 64.0689 99.3934 64.0689" stroke="#181818" stroke-width="1.36184" stroke-linecap="round" stroke-linejoin="round"/>
<path d="M18.288 36.6473C10.9262 35.6655 7.1342 54.2525 5.70703 63.5194" stroke="#181818" stroke-width="1.36184" stroke-linecap="round" stroke-linejoin="round"/>
<path d="M21.3329 37.3006C13.9711 36.3188 10.1791 54.9059 8.75195 64.1728" stroke="#181818" stroke-width="1.36184" stroke-linecap="round" stroke-linejoin="round"/>
<path d="M24.3759 37.7357C17.014 36.7539 13.2221 55.3409 11.7949 64.6078" stroke="#181818" stroke-width="1.36184" stroke-linecap="round" stroke-linejoin="round"/>
<path d="M33.4473 32.3865C33.4473 32.3865 35.8133 27.6479 38.3248 25.2766C40.2819 23.4287 42.2337 21.7794 43.2531 20.2029C45.014 17.4797 45.1127 15.9863 45.6334 12.7853C46.2152 9.21538 47.4437 3.8742 49.7552 2.05225" stroke="#181818" stroke-width="1.36184" stroke-linecap="round" stroke-linejoin="round"/>
<path d="M44.1953 24.7143C46.1523 22.8664 46.5094 22.6508 47.5288 21.073C49.2898 18.3498 49.156 15.0747 49.6767 11.8736C50.2585 8.30376 51.487 2.96258 53.7985 1.14062" stroke="#181818" stroke-width="1.36184" stroke-linecap="round" stroke-linejoin="round"/>
<path d="M48.0566 24.7143C50.0136 22.8664 50.3708 22.6508 51.3902 21.073C53.1511 18.3498 53.0173 15.0747 53.5381 11.8736C54.1199 8.30376 55.3483 2.96258 57.6599 1.14062" stroke="#181818" stroke-width="1.36184" stroke-linecap="round" stroke-linejoin="round"/>
<path d="M57.4258 30.0402L63.189 24.0601L57.753 51.7841" stroke="#181818" stroke-width="1.36184" stroke-linecap="round" stroke-linejoin="round"/>
<path d="M67.2113 29.6051L63.1895 24.0601" stroke="#181818" stroke-width="1.36184" stroke-linecap="round" stroke-linejoin="round"/>
<path d="M56.6055 34.9073L61.7752 30.5103L66.4139 36.5514" stroke="#181818" stroke-width="1.36184" stroke-linecap="round" stroke-linejoin="round"/>
<path d="M55.6387 40.5133L60.8084 36.1162L65.4471 42.1561" stroke="#181818" stroke-width="1.36184" stroke-linecap="round" stroke-linejoin="round"/>
<path d="M54.3223 46.9884L59.492 42.5913L64.1307 48.6312" stroke="#181818" stroke-width="1.36184" stroke-linecap="round" stroke-linejoin="round"/>
<path d="M70.1343 23.9874L74.0002 19.5903L69.459 51.7712" stroke="#181818" stroke-width="1.36184" stroke-linecap="round" stroke-linejoin="round"/>
<path d="M77.0933 24.1809L74 19.5903" stroke="#181818" stroke-width="1.36184" stroke-linecap="round" stroke-linejoin="round"/>
<path d="M68.1543 32.0086L72.889 27.1284L76.6589 32.1527" stroke="#181818" stroke-width="1.36184" stroke-linecap="round" stroke-linejoin="round"/>
<path d="M68.2988 37.5653L71.922 33.9409L75.836 38.9665" stroke="#181818" stroke-width="1.36184" stroke-linecap="round" stroke-linejoin="round"/>
<path d="M66.6543 44.6687L70.9553 40.8027L74.3135 44.8401" stroke="#181818" stroke-width="1.36184" stroke-linecap="round" stroke-linejoin="round"/>
<path d="M83.8809 24.8574C83.8809 24.8574 88.1572 32.54 88.8091 38.7006" stroke="#181818" stroke-width="1.36184" stroke-linecap="round" stroke-linejoin="round"/>
<path d="M88.0137 26.0171C88.0137 26.0171 92.29 33.6997 92.9419 39.8603" stroke="#181818" stroke-width="1.36184" stroke-linecap="round" stroke-linejoin="round"/>
<path d="M1 78.855L30.6811 73.854" stroke="#181818" stroke-width="1.36184" stroke-linecap="round" stroke-linejoin="round"/>
<path d="M50.0059 56.5667C51.8265 55.0174 55.686 53.3046 63.84 52.6527C80.1479 51.3476 91.4549 50.584 91.4549 50.584" stroke="#181818" stroke-width="1.36184" stroke-linecap="round" stroke-linejoin="round"/>
<path d="M91.4571 53.1968C91.4571 53.1968 64.9291 56.0238 64.82 60.4807C64.7109 64.9388 72.213 65.9167 72.3221 73.9616C72.4312 82.0065 42.3151 89.6176 33.291 91.1396" stroke="#181818" stroke-width="1.36184" stroke-linecap="round" stroke-linejoin="round"/>
<path d="M39.7134 54.0669C42.3003 54.0669 44.3975 51.9698 44.3975 49.3828C44.3975 46.7959 42.3003 44.6987 39.7134 44.6987C37.1264 44.6987 35.0293 46.7959 35.0293 49.3828C35.0293 51.9698 37.1264 54.0669 39.7134 54.0669Z" stroke="#181818" stroke-width="1.36184" stroke-linecap="round" stroke-linejoin="round"/>
<path d="M83.375 65.8817L89.1733 57.6187L87.5786 84.4363" stroke="#181818" stroke-width="1.36184" stroke-linecap="round" stroke-linejoin="round"/>
<path d="M95.4072 64.7221L89.1738 57.6187" stroke="#181818" stroke-width="1.36184" stroke-linecap="round" stroke-linejoin="round"/>
<path d="M83.375 71.0995L88.5928 65.5908L93.2315 71.5346" stroke="#181818" stroke-width="1.36184" stroke-linecap="round" stroke-linejoin="round"/>
<path d="M83.0859 78.3486L88.3038 72.1152L93.8125 78.3486" stroke="#181818" stroke-width="1.36184" stroke-linecap="round" stroke-linejoin="round"/>
<path d="M36.9141 51.458C36.9141 51.458 40.9008 51.6034 41.1177 44.9351" stroke="#181818" stroke-width="1.36184" stroke-linecap="round" stroke-linejoin="round"/>
<path d="M42.0964 49.9359C42.3567 49.9359 42.5678 49.7249 42.5678 49.4646C42.5678 49.2042 42.3567 48.9932 42.0964 48.9932C41.8361 48.9932 41.625 49.2042 41.625 49.4646C41.625 49.7249 41.8361 49.9359 42.0964 49.9359Z" fill="#181818"/>
<path d="M34.7411 62.1846C34.7411 62.1846 32.4218 65.5181 35.7553 65.0844C39.0889 64.6493 41.5536 63.852 41.5536 63.852L40.2485 69.5048C40.2485 69.5048 30.4635 74.7954 29.1584 71.1723C27.8533 67.5478 27.4182 58.4887 34.0152 55.9512C37.4682 54.6228 40.1251 54.6059 41.8757 54.8916C43.1691 55.1019 44.2976 55.8902 44.956 57.0226C46.213 59.1835 49.5414 63.1144 56.9928 62.6923L57.1382 66.9687L50.5179 68.2491" stroke="#181818" stroke-width="1.36184" stroke-linecap="round" stroke-linejoin="round"/>
<path d="M47.7129 60.1548C47.7129 60.1548 48.4986 63.4013 49.8024 65.444C50.2608 66.1609 50.4815 67.005 50.3997 67.8517L50.3945 67.9101" stroke="#181818" stroke-width="1.36184" stroke-linecap="round" stroke-linejoin="round"/>
<path d="M40.2734 69.4568C40.2734 69.4568 49.5689 66.205 50.5169 68.3932C51.1454 69.8425 47.8106 70.7125 47.8106 70.7125" stroke="#181818" stroke-width="1.36184" stroke-linecap="round" stroke-linejoin="round"/>
<path d="M47.086 68.9258L50.7105 80.1847L56.1218 78.59L47.5211 86.0791C47.5211 86.0791 42.302 79.9419 41.2397 73.1774L37.3737 81.5846C37.3737 81.5846 32.1066 85.2091 26.9848 84.6286L25.7771 90.6204L23.5059 80.473L30.1262 77.6226L31.1897 72.5009" stroke="#181818" stroke-width="1.36184" stroke-linecap="round" stroke-linejoin="round"/>
<path d="M41.5541 63.8518C41.5541 63.8518 42.9306 63.2233 42.9306 64.5765C42.9306 65.9296 40.6113 68.0074 40.6113 68.0074" stroke="#181818" stroke-width="1.36184" stroke-linecap="round" stroke-linejoin="round"/>
<path d="M57.3772 65.1559C57.3772 65.1559 59.503 64.5274 59.503 63.4158C59.503 62.3042 56.9902 62.6912 56.9902 62.6912" stroke="#181818" stroke-width="1.36184" stroke-linecap="round" stroke-linejoin="round"/>
<path d="M18.8652 68.0556V62.9092" stroke="#181818" stroke-width="1.36184" stroke-linecap="round" stroke-linejoin="round"/>
<path d="M78.3008 76.1006V73.5645" stroke="#181818" stroke-width="1.36184" stroke-linecap="round" stroke-linejoin="round"/>
<path d="M75.5469 86.2842V83.748" stroke="#181818" stroke-width="1.36184" stroke-linecap="round" stroke-linejoin="round"/>
</svg>
