<svg width="121" height="26" viewBox="0 0 121 26" fill="none" xmlns="http://www.w3.org/2000/svg">
<path fill-rule="evenodd" clip-rule="evenodd" d="M9.97358 0C7.4014 0 4.93456 1.0218 3.11575 2.8406C1.29695 4.65941 0.27515 7.12625 0.27515 9.69843C0.25963 11.849 0.974066 13.9413 2.30169 15.6333L9.97358 25.2955L17.6455 15.6333C18.9731 13.9413 19.6875 11.849 19.672 9.69843C19.672 7.12625 18.6502 4.65941 16.8314 2.8406C15.0126 1.0218 12.5458 0 9.97358 0ZM9.97359 0.579102C7.55556 0.581018 5.23711 1.54243 3.5273 3.25224C1.81749 4.96204 0.856085 7.28049 0.854168 9.69852C0.841887 11.7201 1.51833 13.6856 2.77214 15.2715L9.97359 24.2824L17.175 15.2715C18.4235 13.6827 19.0993 11.7191 19.093 9.69852C19.0911 7.28049 18.1297 4.96204 16.4199 3.25224C14.7101 1.54243 12.3916 0.581018 9.97359 0.579102ZM16.1256 14.4754L9.97359 22.0387L3.85779 14.4754C3.09113 13.5005 2.56862 12.3565 2.33383 11.1387C2.09904 9.9209 2.15877 8.66463 2.50804 7.47461C2.85731 6.28458 3.486 5.1953 4.34169 4.29757C5.19739 3.39983 6.25529 2.71967 7.42721 2.31377C8.59912 1.90787 9.85109 1.78801 11.0787 1.96417C12.3064 2.14033 13.4741 2.60741 14.4846 3.32647C15.4951 4.04553 16.319 4.99574 16.8878 6.09787C17.4565 7.2 17.7535 8.42212 17.754 9.66234C17.7981 11.4089 17.2211 13.1144 16.1256 14.4754ZM9.71947 4.69145C9.79142 4.63259 9.88073 4.59904 9.97363 4.59597C10.0212 4.59098 10.0693 4.59546 10.1151 4.60916C10.1609 4.62286 10.2036 4.64551 10.2406 4.6758C10.2776 4.70608 10.3083 4.7434 10.3308 4.78561C10.3533 4.82781 10.3672 4.87406 10.3717 4.92167H9.57556C9.59696 4.83121 9.64753 4.75031 9.71947 4.69145ZM8.48987 4.59595C8.39697 4.59901 8.30765 4.63256 8.23571 4.69142C8.16377 4.75029 8.1132 4.83119 8.0918 4.92164H8.88794C8.86768 4.8306 8.81742 4.749 8.74524 4.68994C8.67305 4.63088 8.58312 4.59778 8.48987 4.59595ZM5.47413 12.5588C5.61696 12.4634 5.78488 12.4124 5.95665 12.4124C6.07111 12.411 6.1847 12.4324 6.29074 12.4756C6.39677 12.5187 6.49309 12.5826 6.57404 12.6636C6.65498 12.7445 6.7189 12.8408 6.76203 12.9469C6.80516 13.0529 6.82663 13.1665 6.82517 13.2809C6.82517 13.4527 6.77423 13.6206 6.6788 13.7635C6.58336 13.9063 6.44772 14.0176 6.28902 14.0833C6.13032 14.1491 5.95569 14.1663 5.78721 14.1328C5.61874 14.0993 5.46398 14.0165 5.34252 13.8951C5.22105 13.7736 5.13834 13.6189 5.10482 13.4504C5.07131 13.2819 5.08851 13.1073 5.15425 12.9486C5.21998 12.7899 5.3313 12.6542 5.47413 12.5588ZM13.5441 12.5588C13.6869 12.4634 13.8548 12.4124 14.0266 12.4124C14.1411 12.411 14.2547 12.4324 14.3607 12.4756C14.4667 12.5187 14.563 12.5826 14.644 12.6636C14.7249 12.7445 14.7888 12.8408 14.832 12.9469C14.8751 13.0529 14.8966 13.1665 14.8951 13.2809C14.8951 13.4527 14.8442 13.6206 14.7487 13.7635C14.6533 13.9063 14.5177 14.0176 14.359 14.0833C14.2003 14.1491 14.0256 14.1663 13.8572 14.1328C13.6887 14.0993 13.5339 14.0165 13.4125 13.8951C13.291 13.7736 13.2083 13.6189 13.1748 13.4504C13.1413 13.2819 13.1585 13.1073 13.2242 12.9486C13.2899 12.7899 13.4012 12.6542 13.5441 12.5588ZM11.4935 4.59597C11.4006 4.59904 11.3113 4.63259 11.2394 4.69145C11.1674 4.75031 11.1169 4.83121 11.0955 4.92167H11.8916C11.8871 4.87406 11.8732 4.82781 11.8507 4.78561C11.8282 4.7434 11.7975 4.70608 11.7605 4.6758C11.7235 4.64551 11.6808 4.62286 11.635 4.60916C11.5892 4.59546 11.5411 4.59098 11.4935 4.59597ZM9.97353 5.35578C11.523 5.31752 13.0729 5.41439 14.6056 5.64529L14.9313 8.64891C14.9313 8.64891 13.7009 8.25084 9.97353 8.25084C6.24614 8.25084 5.01575 8.64891 5.01575 8.64891L5.37763 5.64529C5.37763 5.64529 6.78897 5.35578 9.97353 5.35578ZM8.88799 17.4427V9.66222C8.99236 9.66222 9.09674 9.65386 9.20513 9.64517L9.20516 9.64517C9.32225 9.63579 9.44403 9.62603 9.57557 9.62603V17.6236C9.70626 17.6521 9.83996 17.6642 9.97364 17.6598C10.1074 17.6658 10.2413 17.6536 10.3717 17.6236V9.62603C10.6135 9.6191 10.8555 9.6312 11.0955 9.66222V17.4427C11.3177 17.3686 11.523 17.2777 11.6886 17.2044L11.6887 17.2044C11.7657 17.1703 11.8341 17.14 11.8916 17.117V9.01083C11.2457 8.89559 10.5929 8.82305 9.93745 8.7937C9.30582 8.82115 8.67695 8.89371 8.05566 9.01083V17.117C8.32554 17.244 8.6036 17.3528 8.88799 17.4427Z" fill="#98252B"/>
<path fill-rule="evenodd" clip-rule="evenodd" d="M69.4308 10.4222L73.4838 18.1303H75.7275L70.8783 9.1918L75.1847 4.3064H72.8686L66.4272 11.3993V0.796143H64.2559V18.1303H66.4272V13.8601L69.4308 10.4222ZM30.8903 18.3474C30.2093 18.4675 29.5191 18.528 28.8276 18.5283C26.2221 18.5283 24.8831 17.0808 24.8831 14.3305V6.00718H22.4585V4.30634H24.8831V0.832275H26.982V4.30634H30.0942V6.00718H26.982V14.6923C26.982 16.1399 27.742 16.8636 29.2257 16.8636C29.7854 16.8622 30.3434 16.8016 30.8903 16.6827V18.3474ZM32.0122 18.1302V4.27016H33.894V7.49091C34.5816 6.11576 34.8349 5.6815 35.3415 5.0663C35.6854 4.68866 36.1046 4.38728 36.572 4.18159C37.0395 3.9759 37.5449 3.87047 38.0556 3.87209C38.2102 3.87209 38.4439 3.89849 38.7118 3.92874L38.8518 3.94446V6.00719C36.2462 5.79006 34.2559 7.85279 34.1835 10.8202V18.1302H32.0122ZM48.912 15.4886V18.1303H50.83V4.27026H48.6587V12.0507C48.6587 14.6201 46.9579 16.6828 44.8228 16.6828C44.4366 16.6846 44.0548 16.6012 43.7045 16.4385C43.3542 16.2759 43.0441 16.038 42.7962 15.7419C42.3258 15.1629 42.1087 14.3668 42.1087 13.1002V4.27026H39.9374V13.1364C39.9374 16.4657 41.6744 18.4922 44.4971 18.4922C46.4512 18.4922 47.935 17.4428 48.912 15.4886ZM63.1702 13.6066C62.8445 15.3075 62.4464 16.1036 61.5417 17.0083C61.062 17.5069 60.4812 17.8972 59.8384 18.1531C59.1956 18.4089 58.5055 18.5245 57.8143 18.492C54.2679 18.492 51.988 15.6332 51.988 11.2182C51.988 6.80326 54.3403 3.9082 57.9229 3.9082C60.7456 3.9082 62.5912 5.60905 63.1702 8.72123L61.2522 9.08311C61.1764 8.33695 60.9287 7.61851 60.5284 6.9842C60.2289 6.57566 59.8363 6.24438 59.3832 6.01782C58.93 5.79126 58.4295 5.67595 57.9229 5.68142C55.643 5.68142 54.2317 7.78034 54.2317 11.1458C54.2317 14.6199 55.5707 16.6826 57.8867 16.6826C59.6237 16.6826 60.818 15.4884 61.2522 13.2448L63.1702 13.6066ZM77.3198 14.1135C77.5369 14.9096 77.7541 15.3077 78.2245 15.6695C79.214 16.3802 80.4083 16.7486 81.6262 16.719C83.5442 16.719 84.8831 15.8143 84.8831 14.4753C84.8831 13.3535 84.087 12.6659 82.4947 12.3402L79.5635 11.7974C77.2112 11.3632 75.8361 9.95182 75.8361 7.99766C75.8361 5.57305 77.8988 3.94458 81.0472 3.94458C83.9422 3.94458 85.824 5.13879 86.4754 7.45483L84.5213 7.88909C83.8699 6.40538 82.748 5.7178 80.9748 5.7178C79.2016 5.7178 78.0074 6.51394 78.0074 7.78053C78.0074 8.82998 78.695 9.44518 80.1787 9.6985L82.8928 10.1689C85.7155 10.6756 87.0906 12.0145 87.0906 14.2582C87.0906 16.7914 84.8108 18.4922 81.4091 18.4922C79.4549 18.4922 77.8626 17.9856 76.7046 16.9361C75.9808 16.3209 75.619 15.7419 75.2571 14.5115L77.3198 14.1135ZM101.023 18.4921C104.75 18.4921 107.428 15.5246 107.428 11.363C107.428 6.83948 105.004 3.90823 101.24 3.94442C97.549 3.94442 94.9796 6.87567 94.9796 11.1821C94.9796 15.5608 97.4042 18.4921 101.023 18.4921ZM97.368 11.1459C97.368 9.44503 97.6937 8.10606 98.3089 7.20136C98.6281 6.73939 99.0555 6.36262 99.5538 6.10398C100.052 5.84534 100.606 5.71269 101.168 5.71764C101.738 5.72017 102.3 5.85558 102.809 6.11313C103.318 6.37068 103.759 6.74328 104.099 7.20136C104.75 8.14225 105.076 9.37265 105.076 11.2544C105.076 14.6561 103.629 16.7188 101.204 16.7188C98.7794 16.7188 97.368 14.6923 97.368 11.1459ZM108.514 25.8021V4.27008H110.432V6.94801C111.518 4.81291 112.857 3.9082 114.775 3.9082C118.068 3.9082 120.275 6.83945 120.275 11.182C120.275 15.5246 118.032 18.492 114.738 18.492C112.929 18.492 111.807 17.8045 110.649 16.0312V25.8021H108.514ZM110.685 13.1C111.011 15.1989 112.603 16.7188 114.377 16.7188C114.873 16.696 115.358 16.5681 115.801 16.3435C116.244 16.1189 116.634 15.8028 116.946 15.416C117.633 14.5113 117.995 13.1724 117.995 11.3268C117.995 7.85271 116.656 5.78999 114.413 5.78999C112.712 5.78999 111.301 7.09276 110.722 9.22787V13.1H110.685ZM93.2064 18.5283C93.8979 18.528 94.5881 18.4675 95.2691 18.3474V16.6827C94.7222 16.8016 94.1642 16.8622 93.6045 16.8636C92.1208 16.8636 91.3608 16.1399 91.3608 14.6923V6.00718H94.473V4.30634H91.3608V0.832275H89.2619V4.30634H86.8373V6.00718H89.2619V14.3305C89.2619 17.0808 90.6009 18.5283 93.2064 18.5283Z" fill="#3A3A3A"/>
<path fill-rule="evenodd" clip-rule="evenodd" d="M105.329 22.6901V25.7299H106.524V22.1835C106.53 21.9743 106.493 21.7661 106.414 21.5721C106.336 21.378 106.219 21.2023 106.069 21.0561C105.919 20.9098 105.741 20.7962 105.545 20.7224C105.349 20.6486 105.14 20.6163 104.931 20.6274C104.208 20.6274 103.701 20.9893 103.267 21.7854C103.013 20.9893 102.543 20.6274 101.819 20.6274C101.409 20.6203 101.011 20.7617 100.697 21.0254C100.47 21.2558 100.286 21.5256 100.154 21.8216V20.7721H99.0688V25.8023H100.227V23.1605C100.227 22.292 100.697 21.6768 101.385 21.6768C101.525 21.6749 101.663 21.7109 101.784 21.781C101.905 21.8511 102.004 21.9526 102.072 22.0749C102.157 22.2685 102.194 22.4793 102.181 22.6901V25.8023H103.375V23.1605C103.375 22.2558 103.773 21.713 104.461 21.713C105.04 21.713 105.329 22.0387 105.329 22.6901ZM98.2003 21.713C98.4999 22.1889 98.651 22.7431 98.6346 23.3052C98.6346 24.8251 97.6575 25.9108 96.2462 25.9108C95.8942 25.9225 95.5452 25.8419 95.2341 25.6768C94.923 25.5117 94.6606 25.268 94.473 24.9699C94.1335 24.4684 93.9566 23.8746 93.9663 23.269C93.9663 21.7491 94.9434 20.6635 96.3185 20.6635C96.6991 20.6442 97.0774 20.7324 97.4102 20.918C97.7429 21.1036 98.0168 21.3791 98.2003 21.713ZM95.1605 23.269C95.1605 24.3547 95.5586 24.9699 96.2824 24.9699C97.0061 24.9699 97.4042 24.3547 97.4042 23.269C97.4042 22.1834 97.0061 21.6044 96.2824 21.6044C95.5586 21.6044 95.1605 22.2196 95.1605 23.269ZM93.2064 25.187C93.4614 24.8623 93.624 24.4747 93.6768 24.0652L92.6998 23.9928C92.555 24.608 92.2293 24.9337 91.7227 24.9337C91.1075 24.9337 90.7094 24.3185 90.7094 23.3414C90.7094 22.2558 91.1075 21.6044 91.795 21.6044C92.3017 21.6044 92.6274 21.9301 92.6998 22.5453L93.6768 22.4005C93.6319 21.9998 93.4681 21.6217 93.2064 21.3149C93.0198 21.1092 92.79 20.9474 92.5335 20.841C92.2769 20.7346 92.0001 20.6864 91.7227 20.6997C90.3837 20.6997 89.479 21.7491 89.479 23.3052C89.479 24.8613 90.3475 25.9108 91.6141 25.9108C91.9179 25.9253 92.2208 25.8672 92.4977 25.7414C92.7746 25.6155 93.0176 25.4255 93.2064 25.187ZM87.7058 25.8023H88.9362V24.4995H87.7058V25.8023Z" fill="#676767"/>
</svg>
