<svg width="61" height="60" viewBox="0 0 61 60" fill="none" xmlns="http://www.w3.org/2000/svg">
<path d="M0.5 0V60H15.4079L18.7114 52.5396H22.836C23.6441 51.4018 23.56 51.182 24.9435 51.0204C28.0401 50.8717 28.4474 50.4967 28.4474 48.2987C28.4474 46.3204 27.5294 42.6096 27.4518 41.1874C27.3743 39.3578 27.6135 38.679 27.6135 37.3861C27.6135 36.0931 26.7213 34.6579 26.5597 31.6194C26.4473 29.8593 26.6464 28.0932 27.148 26.4023C26.8013 26.3598 26.4681 26.2416 26.1721 26.0562C25.8761 25.8708 25.6244 25.6226 25.4348 25.3292C24.7289 23.2166 24.2669 21.0302 24.0578 18.8126C24.0394 18.2241 24.1181 17.6366 24.2905 17.0736C25.0405 15.3863 27.2062 15.6837 28.1694 14.604C28.4733 14.2679 28.6672 14.2937 28.6931 13.0848C28.1759 12.4383 28.0466 11.4104 28.0466 9.96229C28.09 9.38671 28.3492 8.84878 28.7724 8.45626C29.1956 8.06375 29.7515 7.84564 30.3287 7.84564C30.9059 7.84564 31.4618 8.06375 31.885 8.45626C32.3082 8.84878 32.5674 9.38671 32.6108 9.96229C32.6108 11.4104 32.4621 12.4125 31.9643 13.0848C31.9643 14.2937 32.1776 14.2679 32.4879 14.604C33.4641 15.6837 35.6298 15.3863 36.3668 17.0736C36.5418 17.6361 36.6227 18.2237 36.606 18.8126C36.606 20.4741 35.5458 24.5728 35.229 25.3292C35.0334 25.6257 34.7739 25.8747 34.4697 26.0582C34.1655 26.2416 33.8241 26.3548 33.4706 26.3894C33.9901 28.0771 34.2089 29.843 34.1171 31.6065C33.949 34.645 33.0568 36.0866 33.0568 37.3731C33.0568 38.6596 33.296 39.3126 33.212 41.1744C33.1344 42.6096 32.2229 46.3463 32.2229 48.2857C32.2229 50.4838 32.6302 50.8717 35.7203 51.0074C37.1038 51.1691 37.0133 51.3889 37.8279 52.5267H41.9524L45.2689 59.9871H60.5259V0H0.5ZM4.37889 6.40664L5.67186 5.59207L6.13086 5.35934L5.66539 5.1266L4.37889 4.31204V3.58798L6.68683 5.06195H8.52284V5.65672H6.68683L4.37889 7.1113V6.40664ZM4.37889 14.5588L6.77734 13.5373L4.37889 12.5159V11.8694H8.50345V12.4771H6.12439L5.47791 12.4318L7.38503 13.2593V13.8218L5.49731 14.6428L6.14379 14.5976H8.54224V15.2053H4.37889V14.5588ZM4.37889 20.2543H5.02537V22.3489H6.05975V20.8814H6.66097V22.3489H7.95394V20.2543H8.55517V22.9501H4.37889V20.2543ZM4.37889 29.6671L4.63749 29.0206L5.05123 28.6198L5.54256 28.3741L6.04682 28.2448H6.82906L7.33332 28.3676L7.86343 28.6327L8.27072 29.0464L8.52284 29.6929V31.2251H4.37889V29.6671ZM4.37889 37.8127H4.42415L8.50345 36.3258V36.9723L7.6113 37.2697V38.8277L8.54224 39.1445V39.791L4.37889 38.2847V37.8127ZM8.50345 53.3283L7.6113 53.658V55.216L8.54224 55.5328V56.1793L4.37889 54.6407V54.1687H4.42415L8.50345 52.6818V53.3283ZM8.54224 46.3851L8.26425 47.0316L7.86343 47.4195L7.36564 47.6651L6.86785 47.7815H6.04682L5.54256 47.6716L5.02537 47.3613L4.63749 46.954L4.37889 46.3398V45.6934L4.61809 45.0921L4.81204 44.84L5.10942 44.6073L5.5167 45.0404L5.24518 45.2537L5.12235 45.4154L4.95426 45.8097V46.2235L5.11588 46.5984L5.37448 46.8506L5.73651 47.038L6.09854 47.1156H6.82906L7.18463 47.0316L7.53373 46.8506L7.78585 46.6049L7.96687 46.2235V45.8097L7.79878 45.4089L7.66302 45.2537L7.39796 45.0275L7.80525 44.6073L8.11556 44.8659L8.3289 45.1503L8.5681 45.758L8.54224 46.3851ZM52.4642 6.74927H54.8627L55.5092 6.79453L53.5697 5.97349V5.41105L55.5092 4.58356L54.8627 4.62881H52.4642V4.02112H56.5888V4.6676L54.1903 5.68904L56.5888 6.71695V7.36343H52.4642V6.74927ZM52.4254 15.1535L52.684 14.5071L53.2465 14.0804L53.6732 13.9575H56.5888V14.5588H53.7443L53.4986 14.6364L53.1818 14.882L53.0202 15.3022V15.6125L53.1689 16.0198L53.4986 16.2655L53.7507 16.3431H56.5888V16.9508H53.6538L53.2206 16.8085L52.684 16.3948L52.419 15.703L52.4254 15.1535ZM56.5888 53.3865L54.1903 54.4144L56.5888 55.4358V56.0823H52.4642V55.4746H54.8627L55.5092 55.5199L53.5697 54.6924V54.1299L55.5092 53.3089L54.8627 53.3542H52.4642V52.7529H56.5888V53.3865ZM56.5888 43.7733H53.7443L53.4986 43.8509L53.1818 44.0965L53.0202 44.5103V44.8206L53.1689 45.2279L53.4986 45.48L53.7507 45.5576H56.5888V46.1588H53.6538L53.2206 46.0231L52.684 45.6093L52.419 44.9111V44.3875L52.6776 43.741L53.24 43.3143L53.6667 43.1915H56.5823L56.5888 43.7733ZM56.5888 36.3775H55.9876V34.2959H54.9532V35.7569H54.352V34.2959H53.059V36.384H52.4578V33.6946H56.5823L56.5888 36.3775ZM56.634 25.5037L56.453 26.1502L56.1944 26.5769L55.6837 26.2472L55.9035 25.8787L56.0328 25.3938V24.9736L55.9358 24.6633L55.7548 24.4758L55.4962 24.4047L55.2764 24.45L55.1795 24.5081L54.9855 24.7732L54.6558 25.9627L54.3455 26.4088L53.8865 26.6027H53.2982L52.975 26.454L52.6582 26.1696L52.419 25.5231V24.8572L52.6129 24.2108L52.8586 23.8617L53.0655 23.6871L53.4921 24.1267L53.3047 24.2754L53.156 24.4887L53.0137 24.9736V25.4261L53.1624 25.8205L53.3047 25.9369L53.4404 26.008H53.7443L53.9705 25.8916L54.1063 25.6589L54.4295 24.5017L54.7463 24.0621L55.0696 23.8681L55.5415 23.7841L56.0587 23.9586L56.453 24.3465L56.6276 24.8831L56.634 25.5037ZM5.21285 38.0455L5.73651 38.2006L7.02947 38.6402V37.4572L5.73651 37.8968L5.21285 38.0455ZM7.0424 54.9962V53.8132L5.74943 54.2528L5.22578 54.4015L5.74943 54.5566L7.0424 54.9962ZM7.49494 29.1369L7.13937 28.9624L6.76441 28.859H6.15025L5.76236 28.9624L5.41973 29.0917L5.1676 29.3438L5.02537 29.7899V30.6174H7.94747V29.7964L7.76646 29.3632L7.49494 29.1369Z" fill="#B5A165"/>
</svg>
