<svg width="101" height="26" viewBox="0 0 101 26" fill="none" xmlns="http://www.w3.org/2000/svg">
<path fill-rule="evenodd" clip-rule="evenodd" d="M3.12519 0.00439453H0.274902V19.3286H3.12519C5.68773 19.3286 8.14532 18.3106 9.95732 16.4986C11.7693 14.6866 12.7873 12.229 12.7873 9.66648C12.7873 7.10394 11.7693 4.64635 9.95732 2.83436C8.14532 1.02236 5.68773 0.00439453 3.12519 0.00439453ZM18.5514 16.494C16.7404 14.683 15.7211 12.2281 15.7168 9.667C15.7208 7.10573 16.74 4.65052 18.551 2.83934C20.362 1.02815 22.8171 0.00871414 25.3784 0.00439453H28.2287V19.3286H25.3784C22.8173 19.3243 20.3623 18.305 18.5514 16.494ZM70.4224 0.00750178H67.4935V19.3511H70.4224V0.00750178ZM58.9028 5.9561C57.5784 5.9559 56.2837 6.34843 55.1825 7.08407C54.0812 7.81971 53.2228 8.8654 52.7158 10.0889C52.2089 11.3124 52.0761 12.6588 52.3344 13.9577C52.5926 15.2567 53.2303 16.4499 54.1667 17.3864C55.1031 18.3229 56.2962 18.9608 57.5951 19.2192C58.894 19.4777 60.2404 19.3451 61.464 18.8384C62.6875 18.3316 63.7334 17.4734 64.4692 16.3722C65.205 15.271 65.5977 13.9764 65.5977 12.652C65.5958 10.8769 64.8899 9.17503 63.6348 7.91974C62.3797 6.66445 60.6779 5.95826 58.9028 5.9561ZM58.9028 16.6641C58.1042 16.6643 57.3235 16.4276 56.6594 15.9841C55.9953 15.5406 55.4776 14.9101 55.1718 14.1723C54.8661 13.4346 54.786 12.6227 54.9417 11.8394C55.0973 11.0562 55.4818 10.3366 56.0464 9.77188C56.611 9.20711 57.3305 8.82247 58.1137 8.6666C58.8969 8.51072 59.7088 8.59062 60.4467 8.89618C61.1845 9.20175 61.8151 9.71925 62.2588 10.3832C62.7025 11.0472 62.9394 11.8279 62.9394 12.6265C62.9388 13.697 62.5134 14.7235 61.7565 15.4805C60.9997 16.2376 59.9733 16.6633 58.9028 16.6641ZM75.8198 7.1638C76.9413 6.37716 78.2782 5.95576 79.6481 5.95713C80.6991 5.95694 81.7353 6.20421 82.673 6.67894C83.6106 7.15366 84.4233 7.8425 85.0452 8.68968C85.6672 9.53686 86.0809 10.5186 86.2529 11.5554C86.4249 12.5922 86.3504 13.6549 86.0354 14.6575C85.7204 15.6602 85.1737 16.5746 84.4396 17.3266C83.7055 18.0787 82.8046 18.6474 81.8099 18.9866C80.8152 19.3259 79.7546 19.4261 78.7139 19.2792C77.6732 19.1324 76.6818 18.7425 75.8198 18.1413V19.3521H72.8848V0.00439453H75.8198V7.1638ZM77.4035 15.9871C78.0682 16.4302 78.8493 16.6661 79.6481 16.6651C80.7182 16.6643 81.7442 16.2385 82.5004 15.4813C83.2566 14.7242 83.6811 13.6976 83.6806 12.6275C83.6806 11.8288 83.4436 11.0479 82.9998 10.3839C82.5559 9.71977 81.925 9.20227 81.1869 8.89682C80.4489 8.59138 79.6368 8.51172 78.8534 8.66793C78.0701 8.82413 77.3506 9.20918 76.7862 9.77435C76.2217 10.3395 75.8376 11.0594 75.6824 11.843C75.5272 12.6265 75.6078 13.4385 75.9142 14.1762C76.2206 14.9139 76.7389 15.5441 77.4035 15.9871ZM41.0589 0.00439453H34.0802V19.3286H41.0589C43.6042 19.3024 46.0364 18.2729 47.8271 16.4638C49.6177 14.6546 50.6222 12.212 50.6222 9.66648C50.6222 7.12101 49.6177 4.67835 47.8271 2.8692C46.0364 1.06005 43.6042 0.0305585 41.0589 0.00439453ZM41.0589 16.3987H37.0091V2.93431H41.0589C41.9499 2.92334 42.8343 3.08937 43.6607 3.42277C44.4871 3.75617 45.2391 4.25031 45.8731 4.87654C46.5071 5.50277 47.0105 6.24862 47.354 7.07086C47.6976 7.8931 47.8745 8.77536 47.8745 9.66648C47.8745 10.5576 47.6976 11.4399 47.354 12.2621C47.0105 13.0843 46.5071 13.8302 45.8731 14.4564C45.2391 15.0827 44.4871 15.5768 43.6607 15.9102C42.8343 16.2436 41.9499 16.4096 41.0589 16.3987ZM93.2594 14.5366L97.0754 5.9612H100.275L92.6795 22.9129C92.2698 23.83 91.5133 24.5473 90.5757 24.9078C89.6381 25.2683 88.5959 25.2426 87.6772 24.8362L86.6625 24.3839L87.8447 21.7297L88.2653 21.9165C88.6438 22.0844 89.0735 22.0952 89.4601 21.9467C89.8467 21.7982 90.1586 21.5024 90.3274 21.1243L91.6546 18.1341L86.2439 5.9612H89.4434L93.2594 14.5366Z" fill="#010101"/>
</svg>
