<?xml version="1.0" encoding="iso-8859-1"?>
<!-- Generator: Adobe Illustrator 26.3.1, SVG Export Plug-In . SVG Version: 6.00 Build 0)  -->
<!DOCTYPE svg [
	<!ENTITY ns_extend "http://ns.adobe.com/Extensibility/1.0/">
	<!ENTITY ns_ai "http://ns.adobe.com/AdobeIllustrator/10.0/">
	<!ENTITY ns_graphs "http://ns.adobe.com/Graphs/1.0/">
	<!ENTITY ns_vars "http://ns.adobe.com/Variables/1.0/">
	<!ENTITY ns_imrep "http://ns.adobe.com/ImageReplacement/1.0/">
	<!ENTITY ns_sfw "http://ns.adobe.com/SaveForWeb/1.0/">
	<!ENTITY ns_custom "http://ns.adobe.com/GenericCustomNamespace/1.0/">
	<!ENTITY ns_adobe_xpath "http://ns.adobe.com/XPath/1.0/">
]>
<svg version="1.2" baseProfile="tiny" id="Layer_1" xmlns:x="&ns_extend;" xmlns:i="&ns_ai;" xmlns:graph="&ns_graphs;"
	 xmlns="http://www.w3.org/2000/svg" xmlns:xlink="http://www.w3.org/1999/xlink" x="0px" y="0px" width="121px" height="28.8px"
	 viewBox="0 0 121 28.8" overflow="visible" xml:space="preserve">
<metadata>
	<sfw  xmlns="&ns_sfw;">
		<slices></slices>
		<sliceSourceBounds  bottomLeftOrigin="true" height="22.7" width="119" x="0.9" y="49.2"></sliceSourceBounds>
	</sfw>
</metadata>
<path fill="#3AD7FC" d="M11,10L1,3v6.7l5.2,3.6L11,10z"/>
<path fill="#FFDD1C" d="M13.8,10l10-7v6.7l-5.2,3.6L13.8,10z"/>
<path fill-rule="evenodd" fill="#3FCD48" d="M12.4,11L0.9,18.9v6.8l11.5-8l11.5,8v-6.8L12.4,11z"/>
<g>
	<path fill="#616161" d="M72,24.7c-0.3,0-0.5,0-0.7,0c-1,0-1.9,0-2.9,0c-0.8,0.1-1.4-0.1-1.8-0.8c-0.2-0.3-0.4-0.3-0.8-0.2
		c-7.1,3.3-14.9-1.2-15.4-8.9C50,8.7,55,3.5,61.3,3.5c5,0.1,9.3,3.7,10.3,8.6c0.6,3.3-0.1,6.2-2.2,8.8c-0.3,0.4-0.3,0.6,0,0.9
		c0.7,0.7,1.3,1.4,2,2.1C71.6,24.2,71.8,24.4,72,24.7z M65.7,17.8c0.1-0.1,0.2-0.2,0.2-0.3c1.1-2.3,1.1-4.6-0.1-6.8
		c-1-1.8-2.6-2.8-4.7-2.8s-3.7,0.9-4.7,2.7c-1.2,2.2-1.3,4.5-0.3,6.8c0.9,2,2.5,3.1,4.8,3.2c0.7,0,1.5,0,2.2-0.4l-3.3-3.6
		c1.5-0.1,2.9-0.1,4.3-0.1c0.2,0,0.4,0.1,0.5,0.3C65,17.1,65.4,17.4,65.7,17.8z"/>
	<path fill="#616161" d="M92.9,10v4.7c0,2.1-0.4,4.1-1.4,5.9c-1.6,2.7-4.1,4-7.2,4.2c-2.5,0.2-4.9-0.2-7-1.9c-2-1.6-2.9-3.7-3.2-6.1
		C74,15.9,73.9,15,73.9,14c0-3.2,0-6.5,0-9.7c0-0.7,0-0.7,0.7-0.7h3.7c0.5,0,0.6,0.2,0.6,0.6v9.4c0,1,0.1,2,0.3,3
		c0.1,0.5,0.3,1,0.5,1.5c0.7,1.5,2,2.4,3.7,2.4c1.8,0,3-0.8,3.8-2.3c0.6-1.1,0.8-2.2,0.8-3.4c0-3.5,0-7,0-10.5c0-0.8,0-0.8,0.8-0.8
		h3.7c0.4,0,0.6,0.1,0.6,0.6C92.9,6.2,92.9,8.1,92.9,10z"/>
	<path fill="#616161" d="M105,18.1c1.6,1.2,3.5,1.9,5.4,2.3c0.9,0.2,1.9,0.1,2.8,0s1.3-0.6,1.4-1.2s-0.2-1.2-1-1.6s-1.6-0.6-2.4-0.9
		c-1.3-0.4-2.7-0.8-4-1.3c-1.9-0.7-3.3-1.9-3.6-4c-0.3-2.3,0.3-4.4,2.1-6c2-1.7,4.3-2.1,6.8-1.9c2.3,0.2,4.3,0.9,6.3,2
		c0.1,0.1,0.3,0.4,0.3,0.4c-0.6,1.3-1.3,2.5-2,3.8c-0.2-0.1-0.3-0.2-0.5-0.3c-1.4-0.8-3-1.5-4.7-1.6c-0.7,0-1.4,0-2,0.2
		c-0.7,0.1-1.1,0.6-1.2,1.3s0.2,1.2,0.8,1.5c0.6,0.3,1.1,0.5,1.7,0.7c1.5,0.5,3,0.8,4.5,1.4c0.9,0.3,1.7,0.8,2.5,1.4
		c1.6,1.4,1.8,3.2,1.6,5.1c-0.3,2.5-1.9,4.1-4.3,4.9c-2.6,0.8-5.2,0.7-7.8,0.1c-1.6-0.4-3.2-1-4.7-1.8c-0.3-0.2-0.4-0.4-0.2-0.7
		C103.7,20.7,104.3,19.4,105,18.1L105,18.1z"/>
	<path fill="#616161" d="M33.9,14.2c0-3.3,0-6.5,0-9.8c0-0.5,0.1-0.7,0.7-0.7h13.5c0.5,0,0.7,0.2,0.7,0.7v2.9c0,0.7,0,0.7-0.7,0.7
		h-8.5c-0.7,0-0.7,0-0.7,0.7v2.7c0,0.7,0,0.7,0.7,0.7h7.1c0.6,0,0.7,0.2,0.7,0.7v2.7c0,0.4-0.1,0.6-0.6,0.6c-2.4,0-4.8,0-7.2,0
		c-0.5,0-0.7,0.1-0.7,0.7V20c0,0.5,0.1,0.7,0.7,0.7h8.7c0.8,0,0.8,0,0.8,0.8v2.7c0,0.8,0,0.8-0.8,0.8H34.7C34,25,34,25,34,24.3
		c0-2.3,0-4.7,0-7L33.9,14.2z"/>
	<path fill="#616161" d="M100.6,14.3v9.8c0,0.5-0.1,0.7-0.7,0.7c-1.2,0-2.5,0-3.7,0c-0.4,0-0.6-0.1-0.6-0.6c0-6.6,0-13.3,0-19.9
		c0-0.5,0.2-0.6,0.6-0.6h3.8c0.5,0,0.6,0.2,0.6,0.6L100.6,14.3z"/>
</g>
</svg>
