<svg width="71" height="30" viewBox="0 0 71 30" fill="none" xmlns="http://www.w3.org/2000/svg">
<path fill-rule="evenodd" clip-rule="evenodd" d="M66.8386 5.32282V9.80415H63.1639V22.6108C63.1652 23.3658 63.4657 24.0894 63.9995 24.6233C64.5334 25.1571 65.2571 25.4576 66.012 25.4589V30C64.0531 29.9974 62.1752 29.218 60.79 27.8328C59.4048 26.4477 58.6255 24.5697 58.6228 22.6108V9.80913H49.4859C48.1913 9.80913 47.1506 10.6905 47.1506 11.8556C47.1506 13.1851 48.1116 13.8523 50.1382 14.7585L51.2336 15.2564H51.2784L52.2743 15.7544C55.3714 17.1784 57.0792 19.5784 57.0792 22.5162C57.0792 27.4158 53.0112 29.9851 48.9929 29.9851C47.374 30.0322 45.7773 29.5986 44.4046 28.739C43.0318 27.8794 41.9446 26.6323 41.2801 25.1552C39.3531 27.7444 35.9573 29.9851 32.0983 29.9851C25.7896 29.9851 20.9647 25.1303 20.5614 18.5328V29.7212H15.9656V15.3411C15.9228 13.9281 15.3314 12.5874 14.3169 11.6031C13.3023 10.6188 11.9443 10.0683 10.5307 10.0683C9.11712 10.0683 7.7591 10.6188 6.74454 11.6031C5.72997 12.5874 5.13862 13.9281 5.09585 15.3411V29.7212H0.5V15.3411C0.558413 12.7195 1.64087 10.2249 3.51563 8.39145C5.39039 6.558 7.90844 5.53138 10.5307 5.53138C13.153 5.53138 15.671 6.558 17.5458 8.39145C19.4205 10.2249 20.503 12.7195 20.5614 15.3411V16.7402C20.9598 10.1627 25.7249 5.31286 31.9589 5.31286C37.0527 5.31286 40.8319 8.4249 42.2859 13.4141C42.205 12.9705 42.1633 12.5206 42.1614 12.0697C42.1614 8.15602 45.2286 5.31286 49.451 5.31286H58.5979V0H63.139V5.32282H66.8386ZM37.7349 14.7137C37.227 12.1892 35.4842 9.73444 31.9241 9.73444H31.939C28.7124 9.73444 26.5166 12.2241 25.8942 14.7137H37.7349ZM51.5184 21.2501C51.1542 20.7598 50.6506 20.3906 50.0734 20.1909V20.171C48.7091 19.5734 47.3946 18.951 46.5282 18.5378C44.1432 17.4174 43.0129 15.834 42.5149 14.3104C42.7887 15.5682 42.9239 16.8522 42.9183 18.1394V18.8664H25.5207C25.7896 22.1527 27.9158 25.4788 32.173 25.4788C34.5332 25.4788 36.5697 23.9303 37.5656 22.2473H45.2436L45.5523 22.9544C45.8112 23.527 46.807 25.3942 48.9183 25.429C50.9199 25.429 52.1149 24.4929 52.1149 22.9394C52.0905 22.3291 51.8825 21.7404 51.5184 21.2501ZM67.9874 29.5881C68.2479 29.8486 68.6013 29.995 68.9697 29.995C69.3382 29.995 69.6915 29.8486 69.952 29.5881C70.2126 29.3276 70.3589 28.9742 70.3589 28.6058C70.3589 28.2373 70.2126 27.884 69.952 27.6234C69.6915 27.3629 69.3382 27.2166 68.9697 27.2166C68.6013 27.2166 68.2479 27.3629 67.9874 27.6234C67.7269 27.884 67.5805 28.2373 67.5805 28.6058C67.5805 28.9742 67.7269 29.3276 67.9874 29.5881ZM68.3724 27.71C68.5502 27.5954 68.7582 27.5363 68.9697 27.5402C69.1107 27.5328 69.2516 27.5554 69.3832 27.6066C69.5148 27.6578 69.6339 27.7364 69.7328 27.8372C69.8317 27.9379 69.908 28.0586 69.9567 28.1911C70.0055 28.3236 70.0254 28.4649 70.0154 28.6058C70.0153 28.8174 69.9523 29.0241 69.8343 29.1998C69.7163 29.3754 69.5487 29.5119 69.3528 29.592C69.157 29.672 68.9417 29.6919 68.7345 29.6492C68.5273 29.6064 68.3375 29.5029 68.1893 29.3519C68.0411 29.2009 67.9412 29.0092 67.9023 28.8012C67.8635 28.5932 67.8875 28.3783 67.9712 28.184C68.0549 27.9897 68.1946 27.8247 68.3724 27.71ZM68.9946 28.8149L69.1788 29.268L69.5274 29.2381L69.2983 28.7402C69.3677 28.703 69.4247 28.6465 69.4627 28.5776C69.5007 28.5087 69.518 28.4303 69.5125 28.3518C69.5133 28.2875 69.5008 28.2238 69.4757 28.1646C69.4506 28.1054 69.4134 28.0521 69.3666 28.0081C69.3197 27.9641 69.2643 27.9303 69.2036 27.9089C69.143 27.8875 69.0786 27.8789 69.0145 27.8838H68.4668V29.268H68.8154V28.8149H68.9946ZM68.8154 28.2024H69.0145C69.0351 28.1996 69.056 28.2012 69.0759 28.2071C69.0958 28.2131 69.1142 28.2233 69.1298 28.237C69.1454 28.2507 69.1578 28.2676 69.1663 28.2866C69.1748 28.3055 69.179 28.3261 69.1788 28.3468C69.1805 28.3684 69.1774 28.3901 69.1696 28.4103C69.1618 28.4305 69.1495 28.4487 69.1338 28.4635C69.118 28.4783 69.0991 28.4894 69.0784 28.4959C69.0578 28.5025 69.036 28.5043 69.0145 28.5012H68.8154V28.2024Z" fill="#231F20"/>
</svg>
