<svg width="121" height="24" viewBox="0 0 121 24" fill="none" xmlns="http://www.w3.org/2000/svg">
<g clip-path="url(#clip0_71_2993)">
<path fill-rule="evenodd" clip-rule="evenodd" d="M45.9963 10.4264C45.9128 10.1804 45.8994 9.91615 45.9574 9.66302C46.0155 9.40989 46.1428 9.17788 46.3251 8.99293C47.0517 8.24992 47.6698 9.12444 47.1898 9.69978C46.8593 10.0383 46.4488 10.2882 45.9963 10.4264ZM36.6659 10.479C35.8637 12.2477 37.4648 12.994 38.2177 11.3601C39.0889 9.47622 37.3333 9.00608 36.6659 10.479ZM32.7602 8.91731C32.5869 9.61704 32.3526 10.3002 32.0599 10.959C31.7772 11.5968 31.6062 11.6165 31.4385 10.8833C31.3004 10.2948 31.1459 9.62416 31.021 9.03567C30.8665 8.32224 30.9552 8.2532 31.4056 8.4143C31.8561 8.57539 32.3624 8.72334 32.7602 8.91731ZM34.404 1.31293C34.5289 0.573203 35.0056 0.375943 35.5744 0.655395C36.0347 0.872381 36.2319 1.0795 36.1596 1.6943C35.9547 3.68802 35.4905 5.64647 34.7788 7.52005C35.5236 7.87521 36.3507 8.02178 37.1722 7.94416C37.982 7.87647 38.7786 7.69724 39.5393 7.41156C40.2528 7.13211 40.3087 7.41156 40.7624 7.62526C41.5876 8.01649 42.3503 7.80608 42.3569 8.90088C42.339 9.69741 42.466 10.4906 42.7317 11.2417C43.0177 11.9946 43.5273 12.0406 44.0467 11.4817C44.0467 9.68005 44.7043 8.21046 46.0193 7.73046C47.3344 7.25046 48.6725 7.57266 48.7251 9.54526C48.7448 10.4329 47.867 11.0642 46.5092 11.7776C46.7952 12.228 47.4396 12.4351 48.1925 12.2609C49.7147 11.8828 50.7503 11.7546 51.4111 12.2872C51.7399 12.5469 52.1147 12.5042 51.6774 13.2176C51.4506 13.5858 51.2237 13.8159 50.6122 13.4576C49.8988 13.0368 49.2018 13.1288 48.3536 13.5102C47.5054 13.8916 46.5848 14.1447 45.6643 13.839C45.1547 13.6718 44.7317 13.3103 44.4873 12.8329C44.0717 13.2232 43.5851 13.5301 43.0539 13.737C42.3372 14.0362 41.7684 14.0329 41.4824 13.2833C41.0188 12.0636 40.8906 10.982 40.6309 9.85101C40.5059 9.24937 40.1772 8.68718 39.4637 8.88772C40.2758 10.3244 40.0325 11.8039 38.3985 13.1979C37.1887 14.2269 35.4593 14.2039 34.8084 12.6916C34.3514 11.6296 35.1076 10.285 35.9262 9.10142C35.3765 9.17073 34.8187 9.13503 34.2824 8.99622C33.7333 10.7222 33.1876 12.1721 32.4478 13.3031C31.9613 14.0461 31.2248 14.0132 30.804 13.1716C29.9525 11.485 29.6172 9.70964 29.2358 7.95731C28.9662 6.72772 29.4758 6.12937 30.5509 6.36279C31.4517 6.55676 32.3262 6.85923 33.2106 7.10581C33.7307 5.20634 34.1304 3.27592 34.4073 1.32608L34.404 1.31293ZM25.0276 11.028C25.1959 10.4684 25.5422 9.97902 26.0139 9.63403C26.6089 9.1606 27.1613 9.32498 26.8917 10.1666C26.7369 10.705 26.4325 11.1884 26.0139 11.5606C25.3202 12.1359 24.8007 11.8861 25.0276 11.028ZM18.1728 9.65046C18.0643 9.1343 18.2155 8.69046 18.7909 8.27293C19.5635 7.71074 19.935 7.82581 20.0698 8.6017C20.2046 9.37759 20.4215 10.1601 20.6056 10.9031C21.3944 10.1171 22.1407 9.28966 22.8413 8.42416C23.0967 8.12502 23.4245 7.89633 23.7934 7.75992C24.1623 7.62351 24.5601 7.58394 24.9487 7.64498C25.307 7.67786 25.6391 7.99348 25.9613 7.97375C26.5958 7.93759 26.7996 7.76005 27.3125 7.74361C28.0358 7.72389 28.4928 8.18416 28.5092 9.12115C28.5092 9.84115 28.4007 10.5579 28.4467 11.2779C28.4928 11.9979 28.7755 12.4121 29.3377 12.4121C29.8999 12.4121 30.0413 12.5535 29.6665 13.0105C29.3739 13.3906 28.9725 13.6726 28.5158 13.8192C28.3411 13.9026 28.1477 13.9391 27.9547 13.9253C27.7616 13.9114 27.5755 13.8477 27.4144 13.7403C26.7207 13.1617 26.6155 12.8691 26.0402 13.2801C24.8237 14.1546 23.41 14.1809 23.0813 13.0203C22.907 12.3628 23.4363 10.5546 24.0873 9.76224C24.8632 8.81868 24.2385 8.83512 23.5054 9.56827C22.3111 10.8225 21.182 12.1371 20.1224 13.5069C19.5898 14.1644 19.3004 14.1348 19.067 13.3918C18.6692 12.1327 18.4391 10.8866 18.1728 9.65046ZM16.5059 7.48389C16.5138 6.23657 16.7362 4.9999 17.1635 3.828C17.8604 1.79293 18.8796 2.32553 18.3536 4.18964C17.9689 5.56718 17.2424 6.88882 16.5059 7.48389ZM9.35195 10.2883C8.80948 10.9918 8.61551 11.6231 8.94428 12.0077C9.27304 12.3924 9.88784 12.0603 10.4237 11.268C11.1076 10.262 10.8182 9.52224 10.7328 9.44991C10.427 9.19676 9.82537 9.67019 9.35195 10.2883ZM12.3569 10.617C12.2352 11.5606 12.5739 11.8006 13.3925 11.2483C13.8451 10.9881 14.2347 10.6311 14.5333 10.2028C14.461 6.69813 15.5755 3.27567 17.6435 1.15512C19.1361 -0.399947 20.1782 0.938135 19.7936 3.65375C19.4319 6.19512 18.0248 8.21046 16.5388 10.0154C16.5388 11.5244 16.9826 12.4713 17.3903 13.6318C17.6665 14.4242 17.3903 14.674 16.9103 14.9272C16.1147 15.3381 15.8911 15.1146 15.5952 14.4077C15.2297 13.5445 14.9318 12.6541 14.7043 11.7447C14.152 12.3581 13.5446 12.9194 12.8895 13.4214C11.6665 14.3157 11.2456 14.1184 10.6703 12.7902C10.0128 13.2472 9.40126 13.7995 8.52346 13.9376C7.56674 14.0888 6.62976 13.3721 6.7514 12.5469C7.044 10.5743 8.28346 9.16718 9.85496 8.21704C11.4856 7.21759 12.6561 8.23019 12.3569 10.6072V10.617ZM11.2095 1.54635C12.3141 0.668546 11.2456 -0.370358 9.99962 0.398957C8.60919 1.29919 7.2691 2.2749 5.98537 3.3217C3.72674 5.06087 4.86756 7.61868 4.58154 10.091C4.41387 11.5244 3.80236 11.9091 2.9377 11.1266C2.30318 10.5381 1.73441 10.6532 1.19195 11.3239C0.468661 12.2148 0.63962 12.4318 1.12619 12.902C3.0988 14.8285 5.72893 14.1217 6.564 11.4948C7.06373 9.92992 6.74483 8.16444 6.63962 6.50087C6.55743 5.22197 7.02099 4.83402 7.82318 4.16992C8.9114 3.29868 10.095 2.4406 11.2095 1.54635ZM62.0961 9.87403C62.1097 9.61358 62.1952 9.362 62.3432 9.14726C62.4912 8.93251 62.6959 8.76301 62.9344 8.65759C63.878 8.23019 64.1377 9.26909 63.4835 9.64389C63.0477 9.83595 62.5705 9.9151 62.0961 9.87403ZM77.41 10.9524C77.5068 10.4388 77.7675 9.97046 78.153 9.61759C78.6758 9.08498 79.1722 9.42033 79.044 10.239C79.0152 10.6766 78.8227 11.0874 78.5048 11.3896C77.8933 12.0176 77.3509 11.7677 77.41 10.9392V10.9524ZM90.5804 11.1628C90.6333 10.6201 90.8645 10.1102 91.238 9.71293C91.7476 9.11457 92.3098 9.41375 92.2539 10.2718C92.2644 10.7247 92.0995 11.1641 91.7936 11.4981C91.2018 12.2181 90.5936 12.0143 90.5804 11.1496V11.1628ZM110.195 11.4916C110.195 11.0674 110.576 10.7157 110.964 10.2587C111.474 9.66361 112.056 9.94964 112 10.811C111.96 11.4127 111.924 11.8532 111.569 12.1096C110.908 12.5633 110.205 12.3135 110.205 11.4685L110.195 11.4916ZM83.8933 11.7776C83.8483 11.1083 84.0163 10.4419 84.3733 9.87403C84.8435 9.10142 85.5404 9.31512 85.6193 10.3146C85.6785 11.0148 85.6752 11.5047 85.3695 12.0307C84.8336 12.971 84.061 12.7474 83.9032 11.7546L83.8933 11.7776ZM58.5125 8.30909C57.9536 8.07567 58.0687 7.7995 58.1837 7.32279C58.4566 6.08334 58.8413 5.19567 59.17 4.03512C59.4692 2.98964 58.5125 2.47348 57.7826 3.34471C57.5135 3.74301 57.276 4.16183 57.0725 4.59731C56.7799 5.11019 56.5333 5.05101 56.3262 4.42964C56.0829 3.68334 55.8429 2.93375 55.5832 2.19403C55.3432 1.51348 55.6687 1.43457 56.6648 1.58252C61.6029 2.31238 67.0177 2.6017 72.6429 2.83183C73.5339 2.868 74.027 2.628 74.3032 1.91457C74.5563 1.25704 74.3492 1.02361 73.524 1.0006C67.3991 0.839505 61.33 0.458135 55.3004 0.0110115C54.2648 -0.064605 53.7191 0.234573 53.913 1.36553C54.2608 3.39669 54.7935 5.39183 55.5043 7.32608C55.1942 7.24185 54.8774 7.18465 54.5574 7.15512C53.8341 7.15512 53.3706 7.51348 53.8407 8.81868C54.1202 9.59457 54.7678 10.7518 54.4522 11.5113C54.0347 12.514 53.9361 13.2143 53.5054 14.2039C53.1766 14.937 53.3114 15.2691 54.0478 15.4565C54.7843 15.6439 55.2446 15.4992 55.4714 14.8811C56.0796 13.2373 56.6681 11.5606 57.2665 9.90033C58.2232 10.0958 59.1673 10.3483 60.0939 10.6565C60.2681 11.7053 60.4226 12.8231 61.7903 13.5924C63.158 14.3617 64.4467 14.2499 65.6796 13.1321C66.6887 12.302 67.375 11.1445 67.6193 9.86087C67.7063 9.87743 67.7904 9.90621 67.8692 9.94635C67.7541 10.3442 67.4583 12.1655 67.81 13.234C68.1618 14.3025 68.9969 14.2631 69.8352 13.6647C70.9793 12.8428 71.7256 11.5606 72.0248 9.92334C72.1859 9.04882 72.5607 9.09156 72.4555 10.0187C72.2845 11.5343 72.2155 13.0696 73.0276 14.1184C73.4648 14.6806 74.0139 14.7233 74.4314 14.2138C74.8489 13.7042 75.181 13.1617 75.684 12.9053C76.3415 14.6148 77.6566 14.1085 79.0933 12.8329C79.7114 14.2927 80.6155 14.3847 82.0226 13.142L82.0654 13.1058C82.2085 13.343 82.3921 13.5533 82.6078 13.7272C83.2654 14.2696 84.2747 13.9672 85.2182 13.5036C83.2851 16.045 81.25 18.1885 80.3722 20.8253C79.7147 22.8406 81.0298 24.1721 82.7755 22.9984C84.9421 21.5354 86.3393 18.5535 86.8752 13.7173L88.7361 11.8828C88.5815 12.9316 88.6867 14.0592 89.9492 14.0888C90.8073 14.1118 91.5306 13.4313 92.313 12.7442C93.4177 15.4894 95.0221 12.7442 96.1432 11.7579C96.1118 12.3387 96.1217 12.9209 96.1728 13.5003C96.393 14.5491 97.2511 14.217 97.8955 13.7962C98.7036 13.22 99.4724 12.5907 100.197 11.9124C100.733 11.4521 100.828 11.4948 100.71 12.1261C100.641 12.5092 100.631 12.9005 100.68 13.2866C100.822 14.3781 101.542 14.3781 102.324 13.7699C102.922 13.3053 103.481 12.7917 103.994 12.2346C104.612 11.577 104.724 11.577 104.533 12.3431C104.452 12.6668 104.399 12.9967 104.372 13.3294C104.306 14.3485 104.977 14.3387 105.855 13.7601C106.733 13.1814 107.499 12.5568 108.334 11.9551C108.449 13.1716 109.031 13.8948 110.086 14.0822C111.628 14.3617 112.851 13.7896 113.505 12.3332C114.117 10.9754 113.92 9.7754 113.4 9.42033C115.465 9.56498 117.536 9.64718 119.597 9.8543C120.334 9.92663 120.709 9.68992 120.728 8.96334C120.728 8.47348 120.4 8.16772 119.542 8.15457C117.488 8.1217 115.432 8.0954 113.374 8.07567C112.471 8.06329 111.584 8.30602 110.813 8.77594C109.455 9.57156 108.485 11.0773 107.229 11.7644C106.572 12.1162 106.463 12.0932 106.664 11.4685C106.981 10.632 107.215 9.76656 107.364 8.88444C107.466 7.99676 106.812 7.67129 106.098 8.31567C104.984 9.32498 104.126 10.594 103.106 11.6855C102.587 12.2313 102.426 12.1392 102.623 11.4685C102.889 10.5447 103.152 9.60115 103.08 8.66745C102.998 7.62197 102.304 7.4543 101.68 8.28937C100.874 9.45653 99.9493 10.5373 98.9213 11.5146C98.3656 12.0077 98.027 12.4154 98.1881 11.4587C98.3657 10.4132 98.6911 9.48608 98.5695 8.52937C98.4971 7.97046 98.0106 7.52005 97.2939 8.34197C96.4851 9.26581 95.9788 10.4362 95.2062 11.3798C94.7459 11.9288 94.1574 12.1228 93.9306 11.0247C93.7925 10.3672 93.6643 9.68663 93.5229 9.01923C93.2698 7.79293 92.5793 7.50361 91.4648 8.15129C89.9689 9.01923 88.5388 10.3146 87.1908 11.6527C87.0856 9.72279 86.9607 8.79238 86.5333 8.45046C85.7114 7.80937 84.7415 7.53649 83.8769 8.20718C83.17 8.75293 82.8347 9.57813 82.4665 10.3475C82.3448 10.6039 82.2199 10.8636 82.118 11.1266C82.0391 11.2187 81.9602 11.3206 81.878 11.4258C81.3914 12.0636 81.1054 11.9781 80.9081 11.1661C80.6714 10.1995 80.5793 9.52224 80.3821 8.56553C80.2046 7.74033 79.307 7.2143 78.2287 7.94087C76.8511 8.87129 75.9733 10.3573 74.9213 11.9485C74.3919 12.7507 74.1487 12.6324 74.1454 11.6855C74.1075 10.7948 74.1927 9.90311 74.3985 9.03567C74.5465 8.48663 75.0889 7.5332 74.3098 7.39183C73.7114 7.24389 73.2577 7.9343 72.6988 7.90142C71.7848 7.86855 71.032 6.75074 70.312 7.668C69.9832 8.10197 69.947 8.67074 70.6604 9.67676C70.7887 9.85759 70.6604 10.6894 70.3317 11.1924C69.7826 12.057 69.3618 12.0011 69.1382 11.0148C69.0078 10.2342 69.0779 9.43324 69.3421 8.68718C69.4506 8.31896 69.6709 7.84882 69.2862 7.58252C68.9015 7.31622 68.5169 7.75676 68.1782 7.72718C67.593 7.67786 67.2413 7.12224 66.781 7.20115C65.9985 7.34252 65.2358 7.9606 65.9854 9.06526C66.1135 9.26865 66.2812 9.44419 66.4785 9.58142C66.3898 11.0477 65.7487 12.3102 64.1476 12.5403C63.6954 12.6113 63.233 12.5089 62.8532 12.2534C62.4734 11.9979 62.2041 11.6084 62.0993 11.1628C63.7169 11.2779 64.838 10.7025 65.032 9.36115C65.2128 8.11183 64.427 7.30307 63.2665 7.27348C62.6841 7.23061 62.1021 7.36101 61.5937 7.64827C61.0853 7.93552 60.6733 8.36677 60.4095 8.88772C59.7782 8.69375 59.1273 8.53923 58.5158 8.28608L58.5125 8.30909ZM84.781 16.3606C84.5673 17.6757 84.1235 19.142 83.2062 20.2861C82.404 21.2888 81.4999 21.4466 82.3087 19.7305C82.8741 18.514 83.7717 17.4685 84.7843 16.3376L84.781 16.3606Z" fill="#6F1013"/>
</g>
<defs>
<clipPath id="clip0_71_2993">
<rect width="120" height="23.4279" fill="white" transform="translate(0.725098)"/>
</clipPath>
</defs>
</svg>
