<svg width="120" height="36" viewBox="0 0 120 36" fill="none" xmlns="http://www.w3.org/2000/svg">
<path d="M17.9926 1.28319e-07C14.4337 0.000425126 10.9548 1.05616 7.99584 3.0337C5.0369 5.01125 2.73081 7.82179 1.36916 11.1099C0.00750968 14.3981 -0.34854 18.0162 0.346034 21.5067C1.04061 24.9971 2.75461 28.2033 5.2713 30.7197C7.788 33.2361 10.9944 34.9497 14.4849 35.6439C17.9755 36.338 21.5935 35.9815 24.8815 34.6195C28.1695 33.2575 30.9798 30.951 32.957 27.9918C34.9342 25.0327 35.9895 21.5537 35.9895 17.9947C35.9895 15.6315 35.524 13.2913 34.6195 11.108C33.7151 8.92459 32.3894 6.94077 30.7182 5.26978C29.047 3.59878 27.063 2.27334 24.8795 1.36915C22.6961 0.464957 20.3559 -0.000282088 17.9926 1.28319e-07ZM26.2465 25.9542C26.1696 26.08 26.0687 26.1894 25.9496 26.2761C25.8304 26.3629 25.6953 26.4253 25.552 26.4598C25.4088 26.4943 25.2601 26.5003 25.1145 26.4773C24.9689 26.4544 24.8293 26.4029 24.7036 26.326C20.4767 23.7473 15.1582 23.1606 8.89423 24.5918C8.60414 24.6579 8.29967 24.6061 8.0478 24.4477C7.92309 24.3693 7.81504 24.2671 7.72983 24.1469C7.64462 24.0267 7.58391 23.8909 7.55118 23.7473C7.51844 23.6037 7.51432 23.455 7.53905 23.3097C7.56377 23.1645 7.61686 23.0256 7.69528 22.9009C7.85366 22.649 8.1056 22.4704 8.39569 22.4042C15.2549 20.8442 21.13 21.5125 25.8747 24.4113C26.0005 24.4881 26.1099 24.589 26.1966 24.7082C26.2834 24.8273 26.3458 24.9624 26.3803 25.1057C26.4148 25.249 26.4208 25.3977 26.3978 25.5433C26.3749 25.6889 26.3234 25.8285 26.2465 25.9542ZM28.4491 21.059C28.3527 21.2166 28.2261 21.3537 28.0766 21.4622C27.9271 21.5708 27.7577 21.6488 27.578 21.6917C27.3983 21.7346 27.2119 21.7417 27.0295 21.7124C26.8471 21.6831 26.6723 21.6181 26.5151 21.5211C21.6822 18.5427 14.3073 17.6831 8.59339 19.4194C8.41558 19.4788 8.22769 19.502 8.0408 19.4875C7.8539 19.4731 7.6718 19.4213 7.50524 19.3353C7.33868 19.2493 7.19103 19.1308 7.07102 18.9868C6.95101 18.8428 6.86107 18.6762 6.80651 18.4969C6.75195 18.3176 6.73387 18.1291 6.75335 17.9427C6.77282 17.7562 6.82946 17.5756 6.9199 17.4114C7.01035 17.2472 7.13277 17.1028 7.27995 16.9867C7.42713 16.8706 7.59607 16.7852 7.77681 16.7355C14.3073 14.7521 22.4322 15.7126 27.987 19.125C28.1446 19.2214 28.2817 19.348 28.3902 19.4975C28.4988 19.647 28.5768 19.8164 28.6197 19.9961C28.6627 20.1758 28.6697 20.3622 28.6404 20.5446C28.6111 20.727 28.5461 20.9018 28.4491 21.059ZM28.6382 15.9554C22.8362 12.5172 13.2694 12.1949 7.73169 13.8753C7.30425 14.005 6.84281 13.9595 6.44888 13.749C6.05496 13.5384 5.76081 13.18 5.63115 12.7525C5.5015 12.3251 5.54695 11.8637 5.75751 11.4697C5.96808 11.0758 6.3265 10.7817 6.75394 10.652C13.1103 8.71801 23.6785 9.09407 30.3551 13.0588C30.5452 13.1716 30.7111 13.3208 30.8435 13.4979C30.9759 13.6749 31.0722 13.8762 31.1267 14.0904C31.1813 14.3047 31.1932 14.5275 31.1616 14.7463C31.13 14.9651 31.0557 15.1755 30.9428 15.3656C30.83 15.5556 30.6807 15.7216 30.5037 15.854C30.3267 15.9864 30.1253 16.0826 29.9111 16.1372C29.4785 16.2474 29.0198 16.1813 28.636 15.9533L28.6382 15.9554ZM48.958 16.6173C45.8507 15.8759 45.3049 15.3559 45.3049 14.2535C45.3049 13.2221 46.2762 12.5344 47.7224 12.5344C49.1234 12.5344 50.5159 13.0609 51.9686 14.1482C52.0137 14.178 52.0684 14.1897 52.1218 14.181C52.1752 14.1722 52.2233 14.1436 52.2565 14.101L53.7736 11.9521C53.8014 11.9089 53.8127 11.8572 53.8056 11.8063C53.7985 11.7555 53.7734 11.7088 53.7349 11.6749C52.0527 10.3021 49.9385 9.56967 47.7675 9.60765C44.4131 9.60765 42.0687 11.6212 42.0687 14.5028C42.0687 17.5907 44.0908 18.6845 47.5848 19.529C50.5568 20.2145 51.0596 20.7883 51.0596 21.8133C51.0596 22.9501 50.0453 23.657 48.4122 23.657C46.5985 23.657 45.1179 23.0446 43.4697 21.6135C43.4283 21.579 43.3753 21.5613 43.3215 21.564C43.2946 21.566 43.2685 21.5732 43.2445 21.5854C43.2205 21.5976 43.1992 21.6144 43.1818 21.6349L41.4713 23.6678C41.4394 23.7093 41.4238 23.761 41.4273 23.8133C41.4309 23.8655 41.4534 23.9146 41.4906 23.9514C43.368 25.6526 45.8142 26.5894 48.3477 26.5774C51.9621 26.5774 54.298 24.6025 54.298 21.5447C54.298 18.966 52.7594 17.5349 48.9752 16.6152L48.958 16.6173ZM62.4659 13.5487C60.8993 13.5487 59.6143 14.1654 58.5527 15.429V14.0064C58.5528 13.9516 58.532 13.8988 58.4944 13.8588C58.4569 13.8189 58.4055 13.7948 58.3507 13.7915H55.5679C55.5132 13.7948 55.4618 13.8189 55.4243 13.8588C55.3867 13.8988 55.3659 13.9516 55.366 14.0064V29.8222C55.3685 29.8751 55.3906 29.9253 55.4278 29.963C55.4651 30.0006 55.515 30.0232 55.5679 30.0263H58.3507C58.4037 30.0232 58.4536 30.0006 58.4909 29.963C58.5281 29.9253 58.5502 29.8751 58.5527 29.8222V24.8303C59.0327 25.3974 59.6329 25.8505 60.3097 26.1568C60.9865 26.4631 61.7231 26.6148 62.4659 26.601C65.3776 26.601 68.3259 24.3597 68.3259 20.0749C68.3259 15.79 65.3819 13.5487 62.468 13.5487H62.4659ZM65.0896 20.0749C65.0896 22.256 63.7466 23.7795 61.8212 23.7795C59.8958 23.7795 58.484 22.1872 58.484 20.0749C58.484 17.9625 59.9194 16.3702 61.8212 16.3702C63.723 16.3702 65.0896 17.9281 65.0896 20.0749ZM75.8792 13.5487C72.1294 13.5487 69.1919 16.4346 69.1919 20.1221C69.1919 23.7752 72.11 26.6246 75.8341 26.6246C79.5967 26.6246 82.5429 23.7473 82.5429 20.0749C82.5429 16.4024 79.6161 13.5487 75.8813 13.5487H75.8792ZM75.8792 23.801C73.885 23.801 72.3808 22.1979 72.3808 20.0749C72.3808 17.9518 73.8334 16.3917 75.8341 16.3917C77.8347 16.3917 79.3539 17.9947 79.3539 20.12C79.3539 22.2452 77.8927 23.801 75.8792 23.801ZM90.5496 13.8023H87.4874V10.6713C87.4874 10.6178 87.4662 10.5664 87.4283 10.5285C87.3904 10.4906 87.339 10.4694 87.2854 10.4694H84.5026C84.4497 10.4719 84.3996 10.494 84.3619 10.5312C84.3242 10.5685 84.3016 10.6184 84.2985 10.6713V13.8023H82.9619C82.9072 13.8056 82.8558 13.8296 82.8182 13.8696C82.7807 13.9095 82.7598 13.9623 82.7599 14.0172V16.3981C82.7598 16.4529 82.7807 16.5057 82.8182 16.5457C82.8558 16.5856 82.9072 16.6097 82.9619 16.613H84.2985V22.7996C84.2985 25.2988 85.5427 26.5666 87.9989 26.5666C88.9092 26.5896 89.8088 26.3669 90.6033 25.922C90.6348 25.9046 90.6609 25.879 90.6791 25.848C90.6972 25.817 90.7067 25.7817 90.7065 25.7458V23.4679C90.7064 23.4334 90.6975 23.3995 90.6805 23.3694C90.6636 23.3393 90.6392 23.314 90.6098 23.296C90.5797 23.2787 90.5456 23.2695 90.5109 23.2695C90.4762 23.2695 90.4421 23.2787 90.4121 23.296C89.9075 23.5572 89.3471 23.6922 88.7789 23.6893C87.8871 23.6893 87.4896 23.2831 87.4896 22.3763V16.6023H90.5517C90.6065 16.599 90.6579 16.5749 90.6954 16.5349C90.733 16.495 90.7538 16.4422 90.7537 16.3874V14.0064C90.7546 13.9798 90.7501 13.9533 90.7404 13.9286C90.7307 13.9038 90.716 13.8813 90.6973 13.8624C90.6786 13.8435 90.6562 13.8286 90.6316 13.8186C90.6069 13.8086 90.5805 13.8038 90.5539 13.8044L90.5496 13.8023ZM101.217 13.8152V13.4305C101.217 12.3002 101.646 11.7952 102.622 11.7952C103.157 11.8011 103.688 11.8985 104.191 12.0832C104.221 12.0937 104.254 12.0967 104.285 12.0918C104.317 12.087 104.347 12.0744 104.373 12.0552C104.4 12.0365 104.421 12.0116 104.436 11.9828C104.45 11.954 104.458 11.9221 104.457 11.8898V9.54533C104.456 9.50202 104.441 9.46017 104.415 9.42527C104.39 9.39037 104.354 9.36406 104.313 9.34978C103.564 9.12395 102.784 9.01452 102.001 9.0253C99.4331 9.0253 98.0728 10.4715 98.0728 13.207V13.7958H96.7362C96.6811 13.7986 96.6292 13.8224 96.5912 13.8624C96.5532 13.9024 96.532 13.9555 96.5321 14.0107V16.3981C96.532 16.4533 96.5532 16.5064 96.5912 16.5464C96.6292 16.5864 96.6811 16.6102 96.7362 16.613H98.0728V26.154C98.0728 26.211 98.0955 26.2657 98.1358 26.306C98.1761 26.3463 98.2307 26.3689 98.2877 26.3689H101.068C101.096 26.3693 101.124 26.3639 101.149 26.3531C101.175 26.3422 101.198 26.3263 101.217 26.3061C101.237 26.2859 101.251 26.262 101.261 26.2358C101.27 26.2097 101.274 26.1818 101.273 26.154V16.6023H103.871L107.85 26.1433C107.399 27.1447 106.954 27.3445 106.346 27.3445C105.806 27.3332 105.279 27.1853 104.812 26.9147C104.762 26.8889 104.704 26.8835 104.651 26.8997C104.624 26.9086 104.6 26.923 104.579 26.9418C104.558 26.9607 104.542 26.9837 104.53 27.0093L103.574 29.0722C103.555 29.1196 103.553 29.1722 103.569 29.2206C103.586 29.269 103.618 29.3101 103.662 29.3365C104.567 29.8493 105.592 30.1119 106.632 30.0972C108.686 30.0972 109.823 29.1388 110.822 26.5645L115.649 14.101C115.661 14.0702 115.666 14.0367 115.662 14.0037C115.658 13.9706 115.646 13.939 115.627 13.9119C115.609 13.8849 115.584 13.8628 115.555 13.8475C115.526 13.8321 115.494 13.824 115.462 13.8238H112.569C112.527 13.8252 112.486 13.8389 112.452 13.8634C112.417 13.8879 112.391 13.9219 112.376 13.9613L109.408 22.4343L106.153 13.9462C106.138 13.9077 106.112 13.8746 106.079 13.8511C106.045 13.8277 106.005 13.8152 105.964 13.8152H101.217ZM95.0322 13.8023H92.2494C92.1942 13.805 92.1423 13.8289 92.1043 13.8689C92.0663 13.9089 92.0452 13.962 92.0452 14.0172V26.154C92.0452 26.2092 92.0663 26.2623 92.1043 26.3023C92.1423 26.3423 92.1942 26.3662 92.2494 26.3689H95.0322C95.0873 26.3662 95.1392 26.3423 95.1772 26.3023C95.2152 26.2623 95.2364 26.2092 95.2363 26.154V14.0064C95.2364 13.9512 95.2152 13.8981 95.1772 13.8581C95.1392 13.8181 95.0873 13.7943 95.0322 13.7915V13.8023ZM93.6569 8.27534C93.2619 8.27492 92.8756 8.39169 92.547 8.61089C92.2184 8.83008 91.9622 9.14184 91.8108 9.50671C91.6594 9.87157 91.6197 10.2731 91.6967 10.6606C91.7736 11.048 91.9638 11.4039 92.2431 11.6833C92.5224 11.9626 92.8783 12.1528 93.2658 12.2297C93.6532 12.3067 94.0548 12.267 94.4197 12.1156C94.7845 11.9642 95.0963 11.708 95.3155 11.3794C95.5347 11.0508 95.6515 10.6645 95.651 10.2695C95.651 9.74062 95.4409 9.2334 95.067 8.85942C94.693 8.48544 94.1858 8.27534 93.6569 8.27534ZM118.03 17.7046C117.641 17.7038 117.262 17.588 116.94 17.3718C116.618 17.1557 116.367 16.8489 116.218 16.4902C116.07 16.1315 116.032 15.7369 116.108 15.3563C116.184 14.9757 116.371 14.6262 116.645 14.3518C116.919 14.0773 117.269 13.8904 117.65 13.8144C118.03 13.7385 118.425 13.777 118.783 13.9252C119.142 14.0733 119.449 14.3244 119.665 14.6467C119.881 14.969 119.997 15.3482 119.998 15.7363C119.998 16.2583 119.79 16.759 119.421 17.1281C119.052 17.4973 118.552 17.7046 118.03 17.7046ZM118.04 13.9677C117.689 13.9643 117.346 14.0653 117.052 14.2578C116.759 14.4504 116.53 14.7257 116.394 15.049C116.257 15.3722 116.22 15.7286 116.287 16.073C116.354 16.4174 116.521 16.7341 116.769 16.9829C117.016 17.2317 117.332 17.4013 117.676 17.4702C118.02 17.5392 118.376 17.5042 118.7 17.3699C119.024 17.2356 119.301 17.0079 119.495 16.7159C119.69 16.4238 119.793 16.0806 119.792 15.7298C119.793 15.4989 119.749 15.27 119.661 15.0563C119.574 14.8426 119.445 14.6482 119.282 14.4845C119.12 14.3207 118.926 14.1907 118.713 14.1021C118.5 14.0134 118.271 13.9677 118.04 13.9677ZM118.47 15.9297L119.024 16.7054H118.556L118.057 15.9941H117.628V16.7054H117.237V14.6575H118.152C118.631 14.6575 118.945 14.9025 118.945 15.3129C118.952 15.4562 118.909 15.5975 118.822 15.7116C118.735 15.8257 118.61 15.9053 118.47 15.9361V15.9297ZM118.139 15.0035H117.63V15.6482H118.139C118.393 15.6482 118.545 15.5257 118.545 15.3237C118.545 15.1217 118.401 15.0099 118.143 15.0099L118.139 15.0035Z" fill="#1ED760"/>
</svg>
